<?xml version="1.0" standalone="no"?>
<!DOCTYPE svg PUBLIC "-//W3C//DTD SVG 20010904//EN"
 "http://www.w3.org/TR/2001/REC-SVG-20010904/DTD/svg10.dtd">
<svg version="1.0" xmlns="http://www.w3.org/2000/svg"
 width="360.000000pt" height="240.000000pt" viewBox="0 0 360.000000 240.000000"
 preserveAspectRatio="xMidYMid meet">

<g transform="translate(0.000000,240.000000) scale(0.100000,-0.100000)"
fill="#000000" stroke="none">
<path d="M1045 2344 c-74 -10 -234 -57 -228 -67 3 -6 1 -7 -5 -3 -14 8 -144
-43 -136 -55 3 -5 -2 -6 -10 -3 -8 3 -23 -3 -34 -13 -10 -10 -24 -19 -31 -21
-23 -5 -91 -55 -85 -63 3 -5 -1 -7 -8 -4 -15 5 -68 -38 -68 -55 0 -6 -4 -9 -8
-6 -12 7 -84 -69 -75 -79 5 -4 3 -5 -4 -2 -14 9 -55 -41 -46 -56 3 -6 1 -7 -5
-3 -11 7 -38 -32 -34 -47 1 -5 -1 -6 -6 -3 -12 7 -83 -106 -77 -122 3 -7 1
-11 -4 -7 -5 3 -21 -21 -36 -52 -179 -388 -134 -842 117 -1184 55 -76 231
-249 253 -249 8 0 15 -4 15 -9 0 -14 161 -106 220 -126 3 -1 12 -5 20 -8 215
-93 546 -105 787 -30 29 9 50 19 49 22 -2 3 6 7 18 7 12 1 52 16 90 33 l68 32
-58 40 c-31 22 -75 55 -97 72 -59 47 -197 194 -197 210 0 5 -6 5 -12 1 -7 -4
-10 -4 -6 1 10 10 -10 47 -22 40 -5 -3 -12 0 -16 6 -4 8 -3 9 4 5 18 -11 15
-1 -12 38 -60 88 -137 304 -154 431 -16 118 -7 345 19 440 5 22 14 56 19 75
57 221 265 497 482 640 21 14 38 28 38 32 0 7 -103 58 -125 62 -5 1 -20 7 -32
14 -12 7 -64 24 -115 38 -79 22 -118 26 -258 29 -91 2 -178 1 -195 -1z m-65
-1134 l0 -440 -112 0 -113 0 2 437 c2 241 3 439 3 441 0 1 50 2 110 2 l110 0
0 -440z"/>
</g>
</svg>
