<?xml version="1.0" encoding="utf-8"?>
<!-- Generator: Adobe Illustrator 14.0.0, SVG Export Plug-In . SVG Version: 6.00 Build 43363)  -->
<!DOCTYPE svg PUBLIC "-//W3C//DTD SVG 1.1//EN" "http://www.w3.org/Graphics/SVG/1.1/DTD/svg11.dtd">
<svg version="1.1" id="Capa_1" xmlns="http://www.w3.org/2000/svg" xmlns:xlink="http://www.w3.org/1999/xlink" x="0px" y="0px"
	 width="175px" height="125px" viewBox="0 0 175 125" enable-background="new 0 0 175 125" xml:space="preserve">
<path fill="#0376A5" d="M58.271,11.182c-10.5,6.076-17.563,17.432-17.563,30.438c0,13.008,7.057,24.387,17.561,30.465
	c-5.168,2.99-11.148,4.682-17.549,4.682c-19.41,0-35.145-15.736-35.145-35.146c0-19.412,15.734-35.146,35.145-35.146
	C47.116,6.473,53.103,8.193,58.271,11.182"/>
<path fill="#F2AB28" d="M58.253,11.195c10.51,6.076,17.572,17.436,17.572,30.449c0,13.01-7.055,24.359-17.561,30.438
	c5.17,2.99,11.152,4.709,17.555,4.709c19.41,0,35.146-15.734,35.146-35.146c0-19.41-15.736-35.146-35.146-35.146
	C69.415,6.498,63.423,8.201,58.253,11.195"/>
<path fill="#A7A9AC" d="M58.269,11.189c10.51,6.074,17.574,17.436,17.574,30.449c0,13.01-7.066,24.367-17.572,30.445
	c-10.504-6.078-17.572-17.436-17.572-30.445C40.698,28.633,47.771,17.268,58.269,11.189"/>
<rect x="28.046" y="28.52" fill="#FFFFFF" width="5.328" height="25.029"/>
<rect x="28.046" y="28.52" fill="none" stroke="#FFFFFF" stroke-width="0.317" stroke-miterlimit="3.864" width="5.328" height="25.029"/>
<path fill-rule="evenodd" clip-rule="evenodd" fill="#FFFFFF" d="M51.12,40.963c0-4.41,2.045-8.928,7.029-8.928
	s7.027,4.518,7.027,8.928c0,4.52-1.9,9.072-7.027,9.072C53.021,50.035,51.12,45.482,51.12,40.963 M69.767,58.283l-5.666-5.629
	c4.123-1.973,6.311-6.313,6.311-11.691c0-7.564-4.41-12.873-12.262-12.873c-7.961,0-12.264,5.199-12.264,12.873
	s4.23,13.018,12.264,13.018c0.43,0,0.824,0,1.184-0.072l4.373,4.375H69.767z"/>
<path fill="none" stroke="#FFFFFF" stroke-width="0.317" stroke-miterlimit="3.864" d="M69.767,58.283l-5.666-5.629
	c4.123-1.973,6.311-6.313,6.311-11.691c0-7.564-4.41-12.873-12.262-12.873c-7.961,0-12.264,5.199-12.264,12.873
	s4.23,13.018,12.264,13.018c0.43,0,0.824,0,1.184-0.072l4.373,4.375H69.767z"/>
<path fill="none" stroke="#FFFFFF" stroke-width="0.317" stroke-miterlimit="3.864" d="M51.12,40.963
	c0-4.41,2.045-8.928,7.029-8.928s7.027,4.518,7.027,8.928c0,4.52-1.9,9.072-7.027,9.072C53.021,50.035,51.12,45.482,51.12,40.963z"
	/>
<path fill="#FFFFFF" d="M96.03,28.986c-1.828-0.609-3.836-0.896-5.989-0.896c-4.408,0-8.747,2.043-8.747,7.639
	c0,8.281,10.973,6.311,10.973,11.08c0,2.258-2.548,3.227-4.448,3.227c-1.971,0-3.943-0.609-5.664-1.543l-0.467,4.52
	c2.474,0.609,3.693,0.969,6.417,0.969c5.057,0,9.395-2.08,9.395-7.566c0-8.391-10.973-6.563-10.973-10.902
	c0-2.725,2.224-3.477,3.945-3.477c1.757,0,3.515,0.393,5.093,1.074L96.03,28.986z"/>
<path fill="none" stroke="#FFFFFF" stroke-width="0.317" stroke-miterlimit="3.864" d="M96.03,28.986
	c-1.828-0.609-3.836-0.896-5.989-0.896c-4.408,0-8.747,2.043-8.747,7.639c0,8.281,10.973,6.311,10.973,11.08
	c0,2.258-2.548,3.227-4.448,3.227c-1.971,0-3.943-0.609-5.664-1.543l-0.467,4.52c2.474,0.609,3.693,0.969,6.417,0.969
	c5.057,0,9.395-2.08,9.395-7.566c0-8.391-10.973-6.563-10.973-10.902c0-2.725,2.224-3.477,3.945-3.477
	c1.757,0,3.515,0.393,5.093,1.074L96.03,28.986z"/>
<rect x="6.698" y="103.244" fill="#6E7071" width="162.346" height="15.283"/>
<path fill-rule="evenodd" clip-rule="evenodd" fill="#FFFFFF" d="M98.073,111.957c0,0.152-0.053,0.303-0.129,0.4
	c-0.168,0.195-0.594,0.338-0.928,0.338c-0.439,0-0.697-0.24-0.697-0.516c0-0.32,0.309-0.516,0.684-0.676
	c0.129-0.053,0.799-0.348,0.93-0.348c0.166,0,0.141,0.348,0.141,0.373V111.957 M75.396,111.957c0,0.152-0.053,0.303-0.129,0.4
	c-0.168,0.195-0.594,0.338-0.928,0.338c-0.439,0-0.697-0.24-0.697-0.516c0-0.32,0.309-0.516,0.682-0.676
	c0.131-0.053,0.801-0.348,0.93-0.348c0.168,0,0.143,0.348,0.143,0.373V111.957z M155.831,110.463v2.152c0,0.027,0,0.33-0.785,0.391
	c-0.154,0.02-0.348,0.045-0.348,0.205c0,0.133,0.129,0.15,0.311,0.15c0.617,0,1.236-0.018,1.855-0.018
	c0.592,0,1.188,0.018,1.805,0.018c0.166,0,0.297-0.018,0.297-0.15c0-0.16-0.244-0.186-0.412-0.205
	c-0.711-0.061-0.711-0.363-0.711-0.391v-2.152H155.831z M151.843,110.463v2.152c0,0.027,0,0.33-0.787,0.391
	c-0.154,0.02-0.35,0.045-0.35,0.205c0,0.133,0.129,0.15,0.311,0.15c0.619,0,1.238-0.018,1.855-0.018
	c0.594,0,1.188,0.018,1.807,0.018c0.168,0,0.297-0.018,0.297-0.15c0-0.16-0.246-0.186-0.414-0.205
	c-0.709-0.061-0.709-0.363-0.709-0.391v-2.152H151.843z M143.942,110.463c0,0.002,0,0.006,0,0.01v1.424
	c0,0.381,0.051,0.791,0.412,1.102c0.336,0.285,0.943,0.426,1.457,0.426c0.736,0,1.316-0.23,1.895-0.523
	c0.055-0.027,0.168-0.09,0.246-0.09c0.168,0,0.117,0.268,0.117,0.32c0,0.098-0.08,0.328,0.154,0.328
	c0.141,0,0.412-0.078,0.541-0.105l1.34-0.268c0.156-0.018,0.594-0.061,0.594-0.213c0-0.105-0.117-0.133-0.246-0.143
	c-0.359-0.025-0.592-0.08-0.578-0.313v-1.955h-1.908c0,0.002,0,0.012,0,0.02v1.457c0,0.213,0.037,0.383-0.193,0.543
	c-0.234,0.16-0.633,0.301-0.967,0.301c-0.297,0-0.607-0.096-0.762-0.275c-0.154-0.178-0.193-0.488-0.193-0.691v-1.354H143.942z
	 M140.247,110.463v2.152c0,0.027,0,0.33-0.783,0.391c-0.156,0.02-0.35,0.045-0.35,0.205c0,0.133,0.127,0.15,0.309,0.15
	c0.619,0,1.238-0.018,1.857-0.018c0.592,0,1.186,0.018,1.803,0.018c0.168,0,0.299-0.018,0.299-0.15c0-0.16-0.246-0.186-0.414-0.205
	c-0.709-0.061-0.709-0.363-0.709-0.391v-2.152H140.247z M133.421,110.463v1.727c0,0.578,0.037,0.719-0.813,0.816
	c-0.156,0.02-0.348,0.08-0.348,0.223c0,0.133,0.129,0.152,0.309,0.152c1.006,0,2.037-0.037,3.043-0.037
	c0.98,0,1.961,0.037,2.941,0.037c0.309,0,0.451,0.061,0.477-0.188c0.039-0.355,0.207-0.721,0.207-1.066
	c0-0.125-0.041-0.205-0.246-0.205c-0.516,0-0.541,1.084-2.41,1.084c-0.93,0-1.031-0.346-1.031-0.816v-1.727H133.421z
	 M125.86,110.463c0.029,0.131,0.037,0.264,0.037,0.371v1.305c0,0.168,0.039,0.531-0.09,0.664s-0.35,0.158-0.541,0.195
	c-0.141,0.027-0.258,0.08-0.258,0.195c0,0.133,0.154,0.16,0.297,0.16c0.592,0,1.186-0.018,1.777-0.018
	c0.467,0,0.904,0.018,1.367,0.018c0.168,0,0.4-0.01,0.4-0.16c0-0.125-0.168-0.178-0.311-0.195c-0.191-0.027-0.477-0.037-0.605-0.15
	c-0.18-0.168-0.127-0.496-0.127-0.709v-1.482c0-0.064,0-0.125-0.002-0.188L125.86,110.463z M121.604,110.463
	c0.031,0.098,0.027,0.223,0.027,0.373v1.309c0,0.213,0.051,0.543-0.131,0.711c-0.129,0.115-0.41,0.125-0.605,0.15
	c-0.141,0.02-0.311,0.072-0.311,0.195c0,0.152,0.232,0.16,0.4,0.16c0.465,0,0.902-0.018,1.365-0.018
	c0.596,0,1.188,0.018,1.781,0.018c0.141,0,0.297-0.025,0.297-0.16c0-0.115-0.117-0.168-0.258-0.195
	c-0.193-0.035-0.414-0.061-0.541-0.195c-0.131-0.135-0.092-0.498-0.092-0.666v-1.449c0-0.086-0.004-0.162-0.002-0.232H121.604z
	 M113.214,110.463c-0.188,0.252-0.295,0.535-0.295,0.846c0,1.334,1.689,2.115,3.545,2.115c1.869,0,3.689-0.844,3.689-2.186
	c0-0.271-0.096-0.535-0.266-0.775h-2.014c0.145,0.322,0.217,0.688,0.217,0.988c0,0.586-0.258,1.67-1.395,1.67
	c-1.289,0-1.701-1.395-1.701-2.053c0-0.18,0.029-0.396,0.104-0.609L113.214,110.463z M110.007,110.463
	c0.016,0.162,0.014,0.332,0.014,0.463v1.219c0,0.168,0.037,0.531-0.092,0.666s-0.348,0.16-0.541,0.195
	c-0.143,0.027-0.258,0.08-0.258,0.195c0,0.135,0.154,0.16,0.297,0.16c0.594,0,1.186-0.018,1.779-0.018
	c0.465,0,0.902,0.018,1.365,0.018c0.168,0,0.4-0.008,0.4-0.16c0-0.123-0.168-0.176-0.311-0.195c-0.191-0.025-0.475-0.035-0.604-0.15
	c-0.18-0.168-0.131-0.498-0.131-0.711v-1.432c0-0.086,0.002-0.168,0-0.25H110.007z M105.976,110.463
	c0.016,0.123,0.021,0.246,0.021,0.365v1.316c0,0.205,0.064,0.551-0.115,0.711c-0.105,0.09-0.35,0.125-0.504,0.15
	c-0.154,0.027-0.26,0.08-0.26,0.195c0,0.135,0.156,0.16,0.311,0.16c0.438,0,0.902-0.018,1.342-0.018
	c0.568,0,1.135,0.018,1.727,0.018c0.143,0,0.297-0.035,0.297-0.16c0-0.115-0.115-0.168-0.258-0.195
	c-0.193-0.035-0.426-0.061-0.541-0.195c-0.129-0.135-0.09-0.498-0.09-0.666v-1.637c0-0.016-0.002-0.031-0.002-0.049L105.976,110.463
	z M101.948,110.463c0.033,0.098,0.025,0.223,0.025,0.373v1.309c0,0.213,0.053,0.543-0.127,0.711
	c-0.131,0.115-0.414,0.125-0.607,0.15c-0.143,0.02-0.311,0.072-0.311,0.195c0,0.152,0.232,0.16,0.4,0.16
	c0.463,0,0.902-0.018,1.367-0.018c0.592,0,1.186,0.018,1.779,0.018c0.143,0,0.297-0.025,0.297-0.16c0-0.115-0.117-0.168-0.258-0.195
	c-0.193-0.035-0.414-0.061-0.541-0.195c-0.131-0.135-0.092-0.498-0.092-0.666v-1.486c0-0.059-0.004-0.123-0.004-0.188
	L101.948,110.463z M98.073,110.463v0.25c0,0.027-0.053,0.035-0.141,0.088c-0.311,0.16-0.777,0.32-1.227,0.408
	c-0.438,0.09-1.133,0.305-1.482,0.482c-0.451,0.221-0.697,0.479-0.697,0.861c0,0.525,0.582,0.871,1.342,0.871
	c1.277,0,2.076-0.711,2.23-0.711c0.117,0,0.193,0.18,0.219,0.205c0.207,0.301,0.451,0.426,0.955,0.426
	c0.541,0,1.018-0.178,1.418-0.408c0.129-0.072,0.336-0.213,0.336-0.338c0-0.063-0.064-0.125-0.17-0.125
	c-0.102,0-0.229,0.08-0.309,0.107c-0.115,0.053-0.18,0.088-0.322,0.088c-0.361,0-0.295-0.418-0.295-0.551v-1.654H98.073z
	 M94.554,110.463c0,0.006,0,0.012,0,0.02c0,0.15,0.207,0.203,0.398,0.203c0.311,0,0.787-0.098,1.059-0.195
	c0.037-0.01,0.07-0.021,0.102-0.033L94.554,110.463z M86.987,110.463v1.717c0,0.578,0.039,0.729-0.813,0.826
	c-0.154,0.02-0.35,0.063-0.35,0.205c0,0.133,0.131,0.17,0.311,0.17c0.621,0,1.238-0.037,1.855-0.037
	c0.671,0,1.316,0.037,1.986,0.037c0.168,0,0.311-0.037,0.311-0.17c0-0.16-0.246-0.186-0.412-0.205
	c-0.813-0.088-0.762-0.301-0.762-0.826v-1.184c0-0.178-0.063-0.293,0.182-0.293c0.154,0,0.322,0.01,0.438,0.088
	c0.207,0.125,0.465,0.48,0.592,0.66l1.188,1.627c0.118,0.178,0.144,0.283,0.438,0.283c0.361,0,0.711-0.018,1.072-0.018
	s0.707,0.018,1.068,0.018c0.168,0,0.387-0.018,0.387-0.168c0-0.125-0.117-0.16-0.27-0.188c-0.568-0.08-0.633-0.266-0.877-0.604
	l-0.852-1.148c-0.309-0.408-0.605-0.736-1.341-0.781c0.057-0.004,0.117-0.01,0.176-0.014L86.987,110.463z M78.974,110.463v1.602
	c0,0.33,0.076,0.711,0.375,0.986c0.256,0.24,0.76,0.373,1.184,0.373c0.596,0,1.238-0.168,1.678-0.453
	c0.104-0.07,0.361-0.248,0.361-0.363c0-0.072-0.064-0.125-0.154-0.125c-0.195,0-0.479,0.258-0.904,0.258
	c-0.684,0-0.631-0.871-0.631-1.201v-1.076H78.974z M75.396,110.463v0.25c0,0.027-0.053,0.035-0.143,0.088
	c-0.311,0.16-0.773,0.32-1.225,0.408c-0.438,0.09-1.135,0.305-1.482,0.482c-0.453,0.221-0.697,0.479-0.697,0.861
	c0,0.525,0.58,0.871,1.342,0.871c1.275,0,2.076-0.711,2.23-0.711c0.115,0,0.191,0.18,0.219,0.205
	c0.207,0.301,0.451,0.426,0.953,0.426c0.543,0,1.02-0.178,1.42-0.408c0.129-0.072,0.334-0.213,0.334-0.338
	c0-0.063-0.064-0.125-0.168-0.125s-0.23,0.08-0.309,0.107c-0.115,0.053-0.18,0.088-0.322,0.088c-0.361,0-0.297-0.418-0.297-0.551
	v-1.654H75.396z M71.876,110.463c0,0.006-0.002,0.012-0.002,0.02c0,0.15,0.207,0.203,0.4,0.203c0.309,0,0.787-0.098,1.057-0.195
	c0.037-0.01,0.07-0.021,0.102-0.033L71.876,110.463z M68.151,110.463v1.602c0,0.33,0.076,0.711,0.373,0.986
	c0.258,0.24,0.76,0.373,1.188,0.373c0.592,0,1.236-0.168,1.676-0.453c0.102-0.07,0.359-0.248,0.359-0.363
	c0-0.072-0.064-0.125-0.154-0.125c-0.193,0-0.479,0.258-0.902,0.258c-0.684,0-0.631-0.871-0.631-1.201v-1.076H68.151z
	 M64.493,110.463c0.033,0.098,0.027,0.223,0.027,0.373v1.309c0,0.205,0,0.523-0.09,0.711c-0.066,0.125-0.465,0.133-0.645,0.15
	c-0.156,0.02-0.311,0.072-0.311,0.188c0,0.15,0.219,0.168,0.387,0.168c0.541,0,1.059-0.018,1.6-0.018s1.082,0.018,1.625,0.018
	c0.168,0,0.398-0.018,0.398-0.168c0-0.115-0.168-0.168-0.309-0.188c-0.234-0.025-0.633-0.018-0.697-0.15
	c-0.09-0.188-0.051-0.506-0.051-0.711v-1.682H64.493z M57.78,110.463c0,0.023-0.002,0.043-0.002,0.063
	c0,0.846,1.613,1.156,2.578,1.359c0.48,0.107,1.059,0.268,1.059,0.668s-0.773,0.561-1.264,0.561c-1.676,0-1.52-1.104-2.09-1.104
	c-0.283,0-0.27,0.17-0.283,0.313l-0.023,0.373c-0.014,0.24,0.012,0.346,0.336,0.471c0.502,0.195,1.25,0.258,1.816,0.258
	c0.695,0,1.471-0.088,2.037-0.363c0.58-0.277,0.965-0.693,0.965-1.184c0-0.746-0.914-1.059-1.842-1.254l-0.711-0.15
	c-0.025-0.006-0.051-0.01-0.078-0.016L57.78,110.463z M56.019,110.463c0.146,0.066,0.332,0.115,0.59,0.115
	c0.219,0,0.422-0.045,0.594-0.121L56.019,110.463z M52.829,110.463c0.035,0.098,0.027,0.223,0.027,0.373v1.309
	c0,0.205,0,0.523-0.09,0.711c-0.064,0.125-0.465,0.133-0.645,0.15c-0.154,0.02-0.309,0.072-0.309,0.188
	c0,0.15,0.217,0.168,0.385,0.168c0.541,0,1.059-0.018,1.602-0.018c0.541,0,1.082,0.018,1.623,0.018c0.168,0,0.4-0.018,0.4-0.168
	c0-0.115-0.168-0.168-0.311-0.188c-0.232-0.025-0.631-0.018-0.695-0.15c-0.09-0.188-0.053-0.506-0.053-0.711v-0.881
	c0-0.154-0.033-0.516,0.055-0.801H52.829z M45.511,110.463c-0.154,0.238-0.242,0.498-0.242,0.783c0,1.262,1.559,2.178,3.377,2.178
	c0.775,0,1.51-0.15,2.141-0.443c0.195-0.08,0.672-0.32,0.672-0.498c0-0.08-0.09-0.133-0.193-0.133c-0.311,0-0.723,0.461-1.703,0.461
	c-1.393,0-2.23-0.854-2.23-1.717c0-0.248,0.129-0.221,0.453-0.221H50.8c0.438,0,0.723-0.01,0.723-0.338
	c0-0.023-0.002-0.045-0.004-0.068l-2.158-0.004c-0.037,0.012-0.076,0.02-0.121,0.027c-0.322,0.053-1.006,0.053-1.354,0.053
	c-0.166,0-0.361,0.014-0.412-0.084L45.511,110.463z M39.259,110.463l1.787,2.623c0.141,0.213,0.154,0.338,0.529,0.338
	c0.412,0,0.451-0.113,0.617-0.355l1.814-2.605H43.3c-0.021,0.037-0.043,0.068-0.061,0.098l-0.684,1.041
	c-0.014,0.035-0.117,0.23-0.193,0.23c-0.104,0-0.221-0.213-0.246-0.258l-0.693-1.111H39.259z M35.507,110.463
	c0.033,0.098,0.025,0.223,0.025,0.373v1.309c0,0.205,0,0.523-0.09,0.711c-0.063,0.125-0.463,0.133-0.645,0.15
	c-0.154,0.02-0.309,0.072-0.309,0.188c0,0.15,0.219,0.168,0.387,0.168c0.541,0,1.059-0.018,1.6-0.018s1.082,0.018,1.623,0.018
	c0.168,0,0.4-0.018,0.4-0.168c0-0.115-0.168-0.168-0.309-0.188c-0.232-0.025-0.633-0.018-0.697-0.15
	c-0.09-0.188-0.051-0.506-0.051-0.711v-1.682H35.507z M31.413,110.463c0.027,0.131,0.037,0.264,0.037,0.371v1.305
	c0,0.168,0.037,0.531-0.092,0.664s-0.348,0.158-0.541,0.195c-0.141,0.027-0.258,0.08-0.258,0.195c0,0.133,0.154,0.16,0.297,0.16
	c0.594,0,1.184-0.018,1.779-0.018c0.463,0,0.9,0.018,1.365,0.018c0.168,0,0.4-0.01,0.4-0.16c0-0.125-0.168-0.178-0.309-0.195
	c-0.195-0.027-0.479-0.037-0.605-0.15c-0.182-0.168-0.131-0.496-0.131-0.709v-1.482c0-0.064,0-0.125,0-0.188L31.413,110.463z
	 M27.155,110.463c0.033,0.098,0.025,0.223,0.025,0.373v1.309c0,0.213,0.053,0.543-0.127,0.711c-0.131,0.115-0.414,0.125-0.609,0.15
	c-0.139,0.02-0.307,0.072-0.307,0.195c0,0.152,0.23,0.16,0.398,0.16c0.465,0,0.902-0.018,1.367-0.018
	c0.594,0,1.186,0.018,1.779,0.018c0.143,0,0.297-0.025,0.297-0.16c0-0.115-0.117-0.168-0.258-0.195
	c-0.193-0.035-0.412-0.061-0.541-0.195s-0.092-0.498-0.092-0.666v-1.449c0-0.086-0.004-0.162-0.002-0.232H27.155z M18.019,110.463
	v0.988c0,0.684,0.129,1.236,1.057,1.627c0.723,0.303,1.729,0.4,2.58,0.4c0.916,0,1.844-0.117,2.566-0.518
	c0.773-0.434,0.76-0.969,0.76-1.582v-0.916h-0.619v0.916c0,0.438,0.025,0.855-0.398,1.219c-0.428,0.383-1.148,0.498-1.818,0.498
	c-0.76,0-1.523-0.195-1.82-0.721c-0.191-0.311-0.178-1.031-0.178-1.396v-0.516H18.019z"/>
<path fill-rule="evenodd" clip-rule="evenodd" fill="#FFFFFF" d="M89.113,108.746c0-0.105-0.025-0.32,0-0.418
	c0.039-0.125,0.387-0.178,0.58-0.178c0.904,0,1.42,0.543,1.42,1.111c0,0.33-0.207,0.678-0.607,0.873
	c-0.322,0.17-0.736,0.213-1.121,0.213c-0.35,0-0.271-0.178-0.271-0.4V108.746 M149.874,110.463v-0.881
	c0-0.123,0.064-0.301-0.168-0.301c-0.4,0-0.801,0.016-1.199,0.016c-0.4,0-0.801-0.016-1.199-0.016c-0.168,0-0.387-0.01-0.387,0.15
	c0,0.115,0.154,0.16,0.297,0.178c0.244,0.027,0.502,0.053,0.645,0.197c0.135,0.143,0.105,0.475,0.104,0.65L149.874,110.463z
	 M145.851,110.463v-1.041c0-0.125-0.039-0.141-0.205-0.141c-0.402,0-0.787,0.016-1.188,0.016c-0.398,0-0.787-0.016-1.186-0.016
	c-0.168,0-0.387-0.01-0.387,0.141c0,0.125,0.152,0.17,0.297,0.188c0.244,0.035,0.502,0.045,0.645,0.197
	c0.139,0.146,0.117,0.486,0.115,0.652L145.851,110.463z M135.55,110.463v-1.439c0-0.598-0.066-0.775,0.811-0.873
	c0.156-0.018,0.361-0.035,0.361-0.176c0-0.145-0.141-0.17-0.322-0.17c-0.607,0-1.225,0.035-1.844,0.035
	c-0.67,0-1.316-0.035-1.986-0.035c-0.18,0-0.309,0.025-0.309,0.17c0,0.15,0.258,0.158,0.412,0.176
	c0.824,0.098,0.748,0.33,0.748,0.873v1.439H135.55z M123.536,110.463c0.004-0.18,0.049-0.316,0.299-0.463
	c0.258-0.15,0.633-0.258,0.967-0.258c0.35,0,0.697,0.115,0.877,0.32c0.096,0.107,0.15,0.254,0.182,0.4h1.945
	c-0.008-0.35-0.066-0.658-0.527-0.916c-0.465-0.258-1.045-0.363-1.625-0.363c-1.264,0-1.908,0.604-2.115,0.604v-0.391
	c0-0.088,0.025-0.32-0.182-0.32c-0.27,0-0.385,0.098-0.463,0.16c-0.398,0.293-1.109,0.506-1.662,0.604
	c-0.141,0.027-0.555,0.055-0.555,0.215c0,0.15,0.205,0.141,0.387,0.15c0.359,0.031,0.492,0.117,0.541,0.258H123.536z
	 M115.099,110.463c0.17-0.498,0.566-0.979,1.34-0.979c0.568,0,1.02,0.348,1.252,0.668c0.07,0.096,0.131,0.203,0.184,0.316
	l2.014-0.006c-0.209-0.299-0.529-0.563-0.922-0.764c-0.684-0.357-1.533-0.516-2.396-0.516c-1.355,0-2.762,0.479-3.355,1.279H115.099
	z M103.878,110.463c-0.004-0.156,0.016-0.328,0.172-0.463c0.219-0.186,0.619-0.275,0.955-0.275c0.711,0,0.914,0.35,0.971,0.74
	l1.928-0.002c-0.006-0.145-0.025-0.342,0.066-0.443c0.191-0.213,0.605-0.295,0.992-0.295c0.375,0,0.787,0.143,0.941,0.383
	c0.059,0.094,0.088,0.223,0.104,0.357l1.918-0.002c-0.012-0.35-0.086-0.656-0.578-0.926c-0.451-0.248-1.121-0.354-1.688-0.354
	c-1.006,0-1.871,0.551-1.986,0.551c-0.053,0-0.154-0.09-0.193-0.115c-0.414-0.303-0.992-0.436-1.6-0.436
	c-1.146,0-1.791,0.488-1.998,0.488v-0.275c0-0.088,0.025-0.32-0.18-0.32c-0.271,0-0.387,0.098-0.465,0.16
	c-0.398,0.293-1.107,0.506-1.662,0.604c-0.143,0.027-0.555,0.055-0.555,0.215c0,0.15,0.207,0.141,0.387,0.15
	c0.359,0.031,0.492,0.117,0.541,0.258H103.878z M96.112,110.463c0.262-0.098,0.336-0.219,0.453-0.408
	c0.166-0.268,0.463-0.561,0.928-0.561c0.67,0,0.58,0.621,0.58,0.924v0.045h1.857v-0.283c0-0.295-0.027-0.57-0.439-0.748
	c-0.451-0.188-1.123-0.248-1.65-0.248c-0.838,0-1.713,0.133-2.41,0.471c-0.303,0.139-0.854,0.523-0.877,0.807L96.112,110.463z
	 M91.314,110.463c1.044-0.104,2.017-0.488,2.017-1.299c0-0.436-0.271-0.826-0.762-1.084c-0.451-0.23-1.058-0.275-1.612-0.275
	c-0.992,0-1.973,0.035-2.978,0.035c-0.592,0-1.186-0.035-1.779-0.035c-0.193,0-0.334,0.045-0.334,0.188
	c0,0.15,0.242,0.141,0.412,0.158c0.787,0.09,0.709,0.34,0.709,0.863v1.449H91.314z M80.882,110.463v-0.4
	c0-0.355,0-0.348,0.426-0.348h0.631c0.348,0,0.439,0.01,0.439-0.238c0-0.223-0.195-0.18-0.465-0.18h-0.672
	c-0.334,0-0.412,0.012-0.412-0.238v-0.613c0-0.125,0.053-0.33-0.219-0.33c-0.219,0-0.348,0.178-0.439,0.293
	c-0.373,0.455-1.018,0.775-1.713,0.971c-0.143,0.035-0.412,0.105-0.412,0.24c0,0.141,0.412,0.096,0.578,0.096
	c0.131,0,0.285,0.027,0.311,0.117c0.025,0.07,0.039,0.303,0.039,0.373v0.258H80.882z M73.433,110.463
	c0.264-0.098,0.338-0.219,0.453-0.408c0.168-0.268,0.465-0.561,0.928-0.561c0.672,0,0.582,0.621,0.582,0.924v0.045h1.855v-0.283
	c0-0.295-0.025-0.57-0.439-0.748c-0.451-0.188-1.121-0.248-1.65-0.248c-0.838,0-1.713,0.133-2.41,0.471
	c-0.303,0.139-0.852,0.523-0.877,0.807L73.433,110.463z M70.06,110.463v-0.4c0-0.355,0-0.348,0.424-0.348h0.631
	c0.35,0,0.439,0.01,0.439-0.238c0-0.223-0.193-0.18-0.463-0.18h-0.672c-0.334,0-0.412,0.012-0.412-0.238v-0.613
	c0-0.125,0.053-0.33-0.219-0.33c-0.221,0-0.348,0.178-0.438,0.293c-0.375,0.455-1.02,0.775-1.715,0.971
	c-0.143,0.035-0.412,0.105-0.412,0.24c0,0.141,0.412,0.096,0.578,0.096c0.131,0,0.285,0.027,0.309,0.117
	c0.027,0.07,0.041,0.303,0.041,0.373v0.258H70.06z M66.429,110.463v-1.066c0-0.088,0.025-0.32-0.18-0.32
	c-0.271,0-0.389,0.098-0.465,0.16c-0.4,0.293-1.109,0.506-1.664,0.604c-0.141,0.027-0.555,0.055-0.555,0.215
	c0,0.15,0.207,0.141,0.389,0.15c0.359,0.031,0.492,0.117,0.539,0.258H66.429z M60.278,110.463c-0.359-0.08-0.861-0.209-0.861-0.498
	c0-0.373,0.605-0.48,1.045-0.48c0.76,0,0.928,0.23,1.34,0.605c0.092,0.08,0.26,0.215,0.439,0.215c0.27,0,0.242-0.277,0.283-0.402
	v-0.213c0-0.25-0.025-0.293-0.373-0.348c-0.516-0.088-1.264-0.158-1.781-0.158c-1.121,0-2.525,0.434-2.59,1.283L60.278,110.463z
	 M54.819,110.463c0.066-0.223,0.205-0.4,0.488-0.4c0.264,0,0.391,0.244,0.711,0.396l1.184,0.004
	c0.285-0.135,0.477-0.354,0.477-0.604c0-0.4-0.555-0.676-1.096-0.676c-1.057,0-1.6,0.676-1.818,0.676v-0.463
	c0-0.088,0.025-0.32-0.182-0.32c-0.27,0-0.385,0.098-0.463,0.16c-0.398,0.293-1.107,0.506-1.664,0.604
	c-0.141,0.027-0.553,0.055-0.553,0.215c0,0.15,0.205,0.141,0.387,0.15c0.359,0.031,0.492,0.117,0.539,0.258H54.819z M47.474,110.463
	c-0.008-0.021-0.014-0.041-0.014-0.063c0-0.188,0.193-0.453,0.361-0.594c0.258-0.197,0.67-0.322,1.059-0.322
	c0.49,0,0.836,0.23,0.836,0.561c0,0.195-0.1,0.35-0.355,0.418h2.158c-0.039-0.35-0.383-0.652-0.797-0.861
	c-0.541-0.285-1.275-0.418-1.947-0.418c-1.369,0-2.727,0.477-3.264,1.283L47.474,110.463z M44.005,110.463l0.303-0.436
	c0.258-0.373,0.361-0.338,0.877-0.4c0.141-0.018,0.297-0.07,0.297-0.188c0-0.143-0.193-0.158-0.361-0.158
	c-0.375,0-0.76,0.016-1.135,0.016c-0.387,0-0.76-0.016-1.146-0.016c-0.168,0-0.322,0.053-0.322,0.178
	c0,0.168,0.258,0.15,0.424,0.168c0.271,0.027,0.582,0.08,0.582,0.313c0,0.154-0.117,0.361-0.223,0.527L44.005,110.463z
	 M41.423,110.463l-0.195-0.311c-0.053-0.08-0.154-0.232-0.154-0.32c0-0.15,0.23-0.195,0.41-0.205
	c0.182-0.008,0.467-0.018,0.467-0.188c0-0.158-0.246-0.158-0.414-0.158c-0.555,0-1.121,0.016-1.688,0.016
	c-0.518,0-1.033-0.016-1.523-0.016c-0.193,0-0.438,0.008-0.438,0.178c0,0.16,0.232,0.143,0.412,0.168
	c0.182,0.027,0.322,0.055,0.453,0.16c0.113,0.09,0.295,0.383,0.371,0.48l0.135,0.195H41.423z M37.442,110.463v-1.066
	c0-0.088,0.025-0.32-0.182-0.32c-0.271,0-0.387,0.098-0.463,0.16c-0.4,0.293-1.109,0.506-1.664,0.604
	c-0.143,0.027-0.555,0.055-0.555,0.215c0,0.15,0.205,0.141,0.389,0.15c0.357,0.031,0.49,0.117,0.539,0.258H37.442z M29.087,110.463
	c0.006-0.18,0.049-0.316,0.299-0.463c0.258-0.15,0.633-0.258,0.967-0.258c0.348,0,0.697,0.115,0.877,0.32
	c0.096,0.107,0.152,0.254,0.184,0.4h1.943c-0.006-0.35-0.064-0.658-0.527-0.916c-0.465-0.258-1.045-0.363-1.625-0.363
	c-1.264,0-1.908,0.604-2.115,0.604v-0.391c0-0.088,0.025-0.32-0.18-0.32c-0.27,0-0.387,0.098-0.465,0.16
	c-0.398,0.293-1.107,0.506-1.662,0.604c-0.143,0.027-0.555,0.055-0.555,0.215c0,0.15,0.207,0.141,0.387,0.15
	c0.359,0.031,0.492,0.117,0.541,0.258H29.087z M24.981,110.463v-1.396c0-0.16,0.014-0.471,0.078-0.631
	c0.102-0.223,0.283-0.258,0.58-0.285c0.191-0.018,0.463,0.01,0.463-0.168c0-0.125-0.143-0.178-0.297-0.178
	c-0.385,0-0.773,0.018-1.148,0.018c-0.385,0-0.771-0.018-1.158-0.018c-0.193,0-0.439,0-0.439,0.178c0,0.205,0.297,0.15,0.502,0.168
	c0.285,0.027,0.543,0.072,0.686,0.258c0.127,0.188,0.115,0.516,0.115,0.713v1.342H24.981z M20.147,110.463v-1.439
	c0-0.598-0.066-0.775,0.811-0.873c0.154-0.018,0.361-0.035,0.361-0.176c0-0.145-0.143-0.17-0.322-0.17
	c-0.605,0-1.225,0.035-1.846,0.035c-0.668,0-1.313-0.035-1.982-0.035c-0.182,0-0.311,0.025-0.311,0.17
	c0,0.15,0.258,0.158,0.412,0.176c0.826,0.098,0.748,0.33,0.748,0.873v1.439H20.147z M155.632,107.471
	c-0.063,0.002-0.123,0.008-0.188,0.014c-0.18,0.018-0.553,0.035-0.553,0.205c0,0.098,0.154,0.123,0.258,0.133
	c0.723,0.072,0.682,0.16,0.682,0.648v1.992h2.012v-2.971c0-0.008,0.002-0.018,0.002-0.029L155.632,107.471z M151.642,107.471
	c-0.063,0.002-0.123,0.008-0.188,0.014c-0.182,0.018-0.553,0.035-0.553,0.205c0,0.098,0.154,0.123,0.258,0.133
	c0.721,0.072,0.684,0.16,0.684,0.648v1.992h2.01v-2.971c0-0.008,0.002-0.018,0.002-0.029L151.642,107.471z M140.048,107.471
	c-0.063,0.002-0.125,0.008-0.188,0.014c-0.18,0.018-0.553,0.035-0.553,0.205c0,0.098,0.156,0.123,0.258,0.133
	c0.721,0.072,0.682,0.16,0.682,0.648v1.992h2.012v-2.971c0-0.008,0-0.018,0-0.029L140.048,107.471z M64.944,107.471
	c-0.355,0.111-0.631,0.324-0.631,0.617c0,0.445,0.504,0.721,1.123,0.721s1.16-0.275,1.16-0.729c0-0.299-0.264-0.506-0.615-0.607
	L64.944,107.471z M35.956,107.471c-0.354,0.111-0.629,0.324-0.629,0.617c0,0.445,0.502,0.721,1.121,0.721s1.162-0.275,1.162-0.729
	c0-0.299-0.262-0.506-0.615-0.607L35.956,107.471z"/>
<path fill-rule="evenodd" clip-rule="evenodd" fill="#FFFFFF" d="M157.845,107.471c0.006-0.143,0.045-0.404-0.221-0.404
	c-0.141,0-0.348,0.063-0.477,0.098c-0.506,0.127-0.994,0.24-1.516,0.301L157.845,107.471 M153.854,107.471
	c0.006-0.143,0.043-0.404-0.221-0.404c-0.141,0-0.35,0.063-0.477,0.098c-0.508,0.127-0.996,0.24-1.516,0.301L153.854,107.471z
	 M142.259,107.471c0.008-0.143,0.045-0.404-0.219-0.404c-0.143,0-0.348,0.063-0.477,0.098c-0.508,0.127-0.994,0.24-1.516,0.301
	L142.259,107.471z M65.981,107.471c-0.16-0.043-0.338-0.066-0.52-0.066c-0.178,0-0.355,0.025-0.518,0.072L65.981,107.471z
	 M36.995,107.471c-0.158-0.043-0.338-0.066-0.52-0.066c-0.176,0-0.357,0.025-0.52,0.072L36.995,107.471z"/>
<path fill-rule="evenodd" clip-rule="evenodd" fill="#A7A9AC" d="M6.661,97.479h1.248v-3.482h1.225c1.57,0,3.08-0.686,3.08-2.621
	c0-1.982-1.484-2.607-3.27-2.607H6.661V97.479 M7.909,89.865H8.97c0.773,0,1.922,0.4,1.922,1.498c0,1.146-0.973,1.535-1.746,1.535
	H7.909V89.865z"/>
<polyline fill="#A7A9AC" points="13.735,97.477 18.614,97.477 18.614,96.379 14.983,96.379 14.983,93.508 18.288,93.508 
	18.288,92.41 14.983,92.41 14.983,89.865 18.614,89.865 18.614,88.768 13.735,88.768 13.735,97.477 "/>
<path fill-rule="evenodd" clip-rule="evenodd" fill="#A7A9AC" d="M21.532,89.865h1.197c1.148,0,1.746,0.498,1.746,1.285
	c0,0.836-0.697,1.359-1.883,1.359h-1.061V89.865 M20.284,97.477h1.248v-3.867h0.748c0.662,0,1.072,0,1.459,0.848l1.336,3.02h1.422
	l-1.646-3.469c-0.275-0.535-0.461-0.725-0.85-0.873v-0.025c1.012-0.174,1.797-0.924,1.797-1.984c0-2.084-1.658-2.357-3.381-2.357
	h-2.133V97.477z"/>
<path fill="#A7A9AC" d="M32.106,88.93c-0.598-0.213-1.285-0.313-1.859-0.313c-1.57,0-2.795,0.824-2.795,2.371
	c0,2.707,3.744,2.172,3.744,4.117c0,1.023-0.998,1.424-1.709,1.424c-0.637,0-1.385-0.25-1.811-0.424l-0.123,1.16
	c0.572,0.186,1.172,0.361,1.783,0.361c1.746,0,3.184-0.736,3.184-2.596c0-2.869-3.744-2.482-3.744-4.156
	c0-0.91,0.822-1.16,1.523-1.16c0.646,0,0.996,0.113,1.633,0.363L32.106,88.93"/>
<path fill-rule="evenodd" clip-rule="evenodd" fill="#A7A9AC" d="M33.644,93.123c0,2.645,1.535,4.504,4.191,4.504
	c2.658,0,4.191-1.859,4.191-4.504c0-2.584-1.547-4.504-4.191-4.504S33.644,90.539,33.644,93.123 M34.966,93.123
	c0-1.771,0.947-3.42,2.869-3.406c1.922-0.014,2.869,1.635,2.869,3.406c0,1.734-0.859,3.406-2.869,3.406
	C35.827,96.529,34.966,94.857,34.966,93.123z"/>
<polyline fill="#A7A9AC" points="43.659,97.477 44.905,97.477 44.905,90.314 44.931,90.314 48.872,97.477 50.472,97.477 
	50.472,88.768 49.224,88.768 49.224,95.779 49.198,95.779 45.354,88.768 43.659,88.768 43.659,97.477 "/>
<path fill-rule="evenodd" clip-rule="evenodd" fill="#A7A9AC" d="M57.782,94.258h-3.471l1.734-4.318L57.782,94.258 M51.718,97.477
	h1.311l0.885-2.195h4.268l0.885,2.195h1.361l-3.682-8.709h-1.311L51.718,97.477z"/>
<path fill="#A7A9AC" d="M71.265,88.992c-0.623-0.273-1.285-0.375-1.959-0.375c-2.656,0-4.604,1.785-4.604,4.467
	c0,2.771,1.834,4.543,4.592,4.543c0.512,0,1.322-0.037,1.982-0.313l-0.074-1.209c-0.438,0.262-1.271,0.424-1.896,0.424
	c-1.809,0-3.281-1.361-3.281-3.406c0-1.959,1.334-3.406,3.344-3.406c0.637,0,1.248,0.162,1.797,0.486L71.265,88.992"/>
<rect x="73.021" y="88.768" fill="#A7A9AC" width="1.246" height="8.709"/>
<polyline fill="#A7A9AC" points="83.282,97.477 84.53,97.477 84.53,90.314 84.555,90.314 88.497,97.477 90.094,97.477 
	90.094,88.768 88.846,88.768 88.846,95.779 88.822,95.779 84.979,88.768 83.282,88.768 83.282,97.477 "/>
<path fill="#A7A9AC" d="M98.167,88.992c-0.625-0.273-1.285-0.375-1.959-0.375c-2.656,0-4.604,1.785-4.604,4.467
	c0,2.771,1.834,4.543,4.59,4.543c0.512,0,1.324-0.037,1.984-0.313l-0.074-1.209c-0.438,0.262-1.273,0.424-1.896,0.424
	c-1.809,0-3.281-1.361-3.281-3.406c0-1.959,1.334-3.406,3.344-3.406c0.637,0,1.248,0.162,1.797,0.486L98.167,88.992"/>
<rect x="99.673" y="88.768" fill="#A7A9AC" width="1.246" height="8.709"/>
<path fill-rule="evenodd" clip-rule="evenodd" fill="#A7A9AC" d="M108.239,94.258h-3.469l1.734-4.318L108.239,94.258
	 M102.177,97.477h1.311l0.885-2.195h4.268l0.885,2.195h1.359l-3.68-8.709h-1.311L102.177,97.477z"/>
<polyline fill="#A7A9AC" points="116.046,97.477 120.925,97.477 120.925,96.379 117.296,96.379 117.296,93.508 120.601,93.508 
	120.601,92.41 117.296,92.41 117.296,89.865 120.925,89.865 120.925,88.768 116.046,88.768 116.046,97.477 "/>
<polyline fill="#A7A9AC" points="122.933,97.477 124.181,97.477 124.181,89.939 124.204,89.939 127.087,97.477 128.31,97.477 
	131.192,89.939 131.218,89.939 131.218,97.477 132.466,97.477 132.466,88.768 130.405,88.768 127.724,96.004 124.991,88.768 
	122.933,88.768 122.933,97.477 "/>
<path fill-rule="evenodd" clip-rule="evenodd" fill="#A7A9AC" d="M134.37,97.479h1.248v-3.482h1.225c1.57,0,3.08-0.686,3.08-2.621
	c0-1.982-1.484-2.607-3.268-2.607h-2.285V97.479 M135.618,89.865h1.061c0.775,0,1.922,0.4,1.922,1.498
	c0,1.146-0.973,1.535-1.746,1.535h-1.236V89.865z"/>
<path fill-rule="evenodd" clip-rule="evenodd" fill="#A7A9AC" d="M142.556,89.865h1.199c1.146,0,1.744,0.498,1.744,1.285
	c0,0.836-0.699,1.359-1.883,1.359h-1.061V89.865 M141.308,97.477h1.248v-3.867h0.748c0.662,0,1.072,0,1.461,0.848l1.334,3.02h1.422
	l-1.646-3.469c-0.275-0.535-0.463-0.725-0.85-0.873v-0.025c1.012-0.174,1.797-0.924,1.797-1.984c0-2.084-1.658-2.357-3.381-2.357
	h-2.133V97.477z"/>
<polyline fill="#A7A9AC" points="149.063,97.477 153.94,97.477 153.94,96.379 150.31,96.379 150.31,93.508 153.616,93.508 
	153.616,92.41 150.31,92.41 150.31,89.865 153.94,89.865 153.94,88.768 149.063,88.768 149.063,97.477 "/>
<path fill="#A7A9AC" d="M160.065,88.93c-0.598-0.213-1.285-0.313-1.859-0.313c-1.57,0-2.795,0.824-2.795,2.371
	c0,2.707,3.744,2.172,3.744,4.117c0,1.023-1,1.424-1.709,1.424c-0.637,0-1.385-0.25-1.811-0.424l-0.125,1.16
	c0.574,0.186,1.174,0.361,1.785,0.361c1.746,0,3.182-0.736,3.182-2.596c0-2.869-3.744-2.482-3.744-4.156
	c0-0.91,0.824-1.16,1.523-1.16c0.648,0,0.998,0.113,1.635,0.363L160.065,88.93"/>
<path fill-rule="evenodd" clip-rule="evenodd" fill="#A7A9AC" d="M166.778,94.258h-3.467l1.732-4.318L166.778,94.258
	 M160.716,97.477h1.311l0.885-2.195h4.268l0.885,2.195h1.361l-3.682-8.709h-1.311L160.716,97.477z"/>
<polyline fill="#A7A9AC" points="76.546,97.477 76.546,88.768 78.271,88.768 77.603,88.033 78.942,88.033 79.396,88.768 
	81.425,88.768 81.425,89.865 77.794,89.865 77.794,92.41 81.101,92.41 81.101,93.508 77.794,93.508 77.794,96.379 81.425,96.379 
	81.425,97.477 76.546,97.477 "/>
</svg>
