<?xml version="1.0" standalone="no"?>
<!DOCTYPE svg PUBLIC "-//W3C//DTD SVG 20010904//EN"
 "http://www.w3.org/TR/2001/REC-SVG-20010904/DTD/svg10.dtd">
<svg version="1.0" xmlns="http://www.w3.org/2000/svg"
 width="125.000000pt" height="125.000000pt" viewBox="0 0 125.000000 125.000000"
 preserveAspectRatio="xMidYMid meet">
<metadata>
Created by potrace 1.16, written by Peter Selinger 2001-2019
</metadata>
<g transform="translate(0.000000,125.000000) scale(0.100000,-0.100000)"
fill="#000000" stroke="none">
<path d="M665 1080 c-3 -6 -3 -19 0 -30 6 -18 -2 -25 -26 -22 -4 1 -10 -24
-14 -56 -6 -48 -9 -54 -19 -38 -6 10 -19 28 -29 40 -18 21 -18 21 -3 -4 22
-34 20 -40 -14 -40 -16 0 -30 -4 -30 -10 0 -12 45 -24 64 -17 20 8 23 -8 18
-90 l-4 -72 -51 42 c-28 23 -78 67 -111 97 -58 53 -59 53 -21 10 22 -25 50
-55 62 -66 23 -21 32 -41 13 -29 -12 7 -50 -12 -50 -25 0 -13 47 -13 55 0 11
18 25 11 65 -32 32 -33 40 -49 40 -80 0 -22 -5 -38 -12 -38 -6 0 -78 27 -160
60 -83 33 -153 60 -156 60 -4 -1 22 -16 57 -34 61 -31 64 -34 43 -45 -12 -6
-22 -16 -22 -21 0 -16 32 -12 52 7 17 15 21 15 58 -2 28 -12 37 -21 28 -26
-10 -6 -7 -15 9 -38 l22 -29 -104 -7 c-58 -4 -102 -11 -99 -16 3 -5 66 -9 140
-9 148 0 142 3 128 -69 l-6 -31 -170 0 c-131 0 -169 -3 -166 -12 4 -10 50 -14
176 -16 149 -2 172 0 172 13 0 10 10 15 30 15 20 0 30 -5 30 -15 0 -13 23 -15
172 -13 126 2 172 6 176 16 3 9 -35 12 -166 12 -167 0 -170 0 -176 23 -3 12
-6 34 -6 48 0 25 2 26 77 33 42 3 115 7 162 8 l86 1 -130 11 c-94 8 -126 14
-114 21 17 10 33 55 20 55 -11 0 -37 -31 -44 -52 -4 -11 -17 -18 -32 -18 -22
0 -26 4 -23 25 3 27 -2 24 250 137 27 12 46 23 45 25 -4 3 -202 -69 -256 -94
-41 -19 -51 -8 -51 54 0 40 3 44 88 116 162 138 139 134 -38 -6 -24 -20 -48
-33 -52 -31 -4 3 -8 33 -8 67 0 45 6 72 21 97 69 115 72 128 10 41 l-31 -44 0
31 c0 18 3 31 8 31 22 -4 32 4 42 36 11 34 7 55 -10 55 -5 0 -12 -5 -15 -10z"/>
</g>
</svg>
