<?xml version="1.0" standalone="no"?>
<!DOCTYPE svg PUBLIC "-//W3C//DTD SVG 20010904//EN"
 "http://www.w3.org/TR/2001/REC-SVG-20010904/DTD/svg10.dtd">
<svg version="1.0" xmlns="http://www.w3.org/2000/svg"
 width="1179.000000pt" height="1409.000000pt" viewBox="0 0 1179.000000 1409.000000"
 preserveAspectRatio="xMidYMid meet">

<g transform="translate(0.000000,1409.000000) scale(0.100000,-0.100000)"
fill="#000000" stroke="none">
<path d="M950 13070 c0 -5 -9 -78 -19 -162 -11 -84 -29 -247 -40 -363 -12
-115 -23 -232 -26 -260 -12 -113 -36 -467 -50 -715 -16 -297 -41 -1167 -33
-1175 3 -3 8395 -8 10217 -5 27 0 -3 978 -50 1615 -26 360 -80 898 -104 1043
l-6 32 -4944 0 c-3159 0 -4945 -3 -4945 -10z m9251 -425 c28 -29 41 -35 76
-35 57 0 88 -37 79 -95 -7 -46 -53 -95 -89 -95 -34 0 -36 -6 -18 -55 16 -45
15 -47 -14 -117 -6 -16 1 -18 83 -18 88 0 91 -1 116 -31 14 -17 26 -39 26 -49
0 -25 -17 -69 -33 -83 -27 -26 -86 -67 -96 -67 -6 0 -11 -4 -11 -9 0 -5 -16
-12 -37 -16 -31 -5 -40 -3 -62 19 l-25 26 39 40 c23 24 33 40 25 40 -38 0
-213 -31 -231 -40 -11 -6 -81 -26 -154 -45 -157 -38 -204 -63 -276 -145 -60
-69 -80 -74 -127 -31 -29 27 -32 36 -32 85 0 30 4 58 10 61 5 3 17 32 26 63
39 141 55 181 77 188 33 10 67 -39 67 -98 0 -27 2 -48 5 -48 14 0 75 30 75 36
0 4 -9 17 -20 29 -25 26 -28 100 -10 215 8 47 13 104 12 127 -1 46 21 70 57
58 32 -10 80 -146 81 -229 0 -22 3 -37 6 -33 10 10 35 189 30 212 -7 33 35
109 63 113 27 4 60 -30 61 -61 0 -14 5 -17 23 -12 54 17 72 31 77 60 13 81 65
98 121 40z m-5126 -26 c16 -16 20 -32 19 -92 0 -40 -6 -111 -13 -157 -9 -55
-11 -129 -7 -210 21 -450 20 -465 -23 -504 -17 -16 -23 -16 -89 2 -70 18 -163
17 -284 -4 -50 -8 -48 7 5 33 98 47 203 106 218 121 46 46 74 468 46 676 -15
108 -14 128 6 154 15 19 96 6 122 -19z m-1904 -70 c6 -12 9 -39 6 -60 -6 -49
5 -50 93 -7 75 36 170 52 216 36 50 -18 88 -108 45 -108 -10 0 -21 -8 -23 -18
-5 -19 -63 -35 -175 -47 -28 -3 -77 -14 -109 -25 -32 -11 -103 -30 -158 -41
-56 -12 -119 -25 -141 -30 -47 -10 -150 -11 -183 -3 -29 8 -38 45 -23 95 l12
39 86 0 c48 0 112 7 142 14 31 8 73 18 94 21 20 3 37 8 37 10 0 3 -9 19 -20
37 -34 56 -10 108 51 108 29 0 41 -5 50 -21z m1261 -20 c70 -34 100 -95 74
-151 -7 -15 -3 -18 19 -18 30 0 101 -36 109 -55 2 -7 2 -31 -1 -53 -5 -36 -11
-43 -53 -66 -26 -14 -55 -26 -64 -26 -28 0 -73 -28 -79 -49 -3 -12 3 -27 14
-37 10 -9 19 -23 19 -31 0 -22 13 -16 81 39 71 57 76 63 102 128 10 25 24 48
30 52 34 21 118 -4 132 -39 3 -10 9 -50 12 -89 6 -81 -13 -139 -50 -147 -57
-14 -132 19 -150 66 -3 7 -21 -4 -47 -30 -23 -24 -45 -43 -50 -43 -9 0 -74
-86 -106 -141 -34 -59 -36 -156 -6 -280 7 -28 5 -45 -10 -78 -18 -40 -20 -41
-67 -41 -44 0 -51 4 -75 34 -14 19 -26 44 -26 55 0 10 -8 33 -17 50 -17 29
-17 30 9 58 23 24 33 50 29 75 0 4 -25 -5 -53 -20 -70 -37 -173 -65 -212 -58
-16 4 -41 13 -54 22 -21 14 -23 21 -17 52 7 39 40 82 62 82 7 0 13 3 13 8 0 4
23 20 51 37 27 16 56 40 65 52 8 13 19 23 25 23 13 0 58 51 59 67 0 17 33 33
69 33 39 0 42 27 5 36 -17 4 -52 -4 -107 -26 -130 -51 -207 -36 -243 48 -20
49 -9 78 37 96 21 9 39 20 39 25 0 4 33 11 73 15 85 8 167 26 167 38 0 4 7 8
16 8 9 0 23 8 30 18 17 22 18 79 1 89 -39 23 -71 139 -45 161 13 10 89 28 130
31 10 0 37 -8 60 -20z m3699 -5 c31 -16 43 -43 41 -94 -2 -43 -23 -60 -76 -59
-36 0 -45 5 -73 41 -79 98 -7 172 108 112z m-489 -11 c9 -10 20 -31 25 -48 11
-34 30 -37 123 -15 68 16 120 8 160 -26 52 -44 35 -78 -55 -109 -38 -12 -67
-15 -117 -10 -113 12 -134 1 -154 -80 -6 -22 -4 -23 33 -15 21 5 67 18 103 29
95 30 129 28 183 -14 25 -19 49 -45 53 -57 3 -12 3 -116 -1 -232 -5 -161 -11
-223 -24 -261 -27 -76 -84 -187 -103 -198 -11 -8 -35 -4 -88 12 -90 29 -180
69 -180 82 0 5 27 9 60 9 32 0 82 5 110 11 41 9 53 16 67 42 33 65 45 133 50
298 5 146 3 170 -12 204 -18 36 -20 37 -60 32 -94 -13 -215 -73 -215 -107 0
-26 20 -26 95 0 80 28 101 26 136 -12 16 -18 29 -36 29 -40 0 -15 -63 -47
-146 -73 -68 -21 -84 -29 -84 -45 0 -24 -4 -24 75 -4 76 19 120 8 136 -33 12
-33 13 -31 -23 -53 -23 -14 -51 -20 -93 -20 -33 0 -66 -4 -72 -8 -7 -4 -17
-39 -22 -76 -10 -67 -31 -106 -57 -106 -34 0 -65 25 -76 62 -11 36 -13 38 -54
38 -42 0 -43 -1 -54 -42 -32 -123 -29 -118 -76 -118 -41 0 -44 2 -53 38 -27
94 -3 271 69 525 30 103 50 137 82 137 32 0 50 -27 51 -80 l2 -50 25 25 c19
20 25 37 28 90 3 49 1 65 -9 65 -21 0 -133 -32 -143 -41 -6 -5 -25 -9 -43 -9
-39 0 -48 15 -39 64 7 38 20 45 131 66 32 7 78 22 102 33 38 19 43 25 49 66 4
25 11 52 16 59 15 17 42 15 60 -5z m-5384 -16 c17 -13 15 -78 -4 -105 -14 -21
-22 -22 -130 -21 -64 0 -118 -2 -121 -5 -4 -3 1 -14 9 -23 9 -10 23 -33 32
-50 16 -32 19 -33 79 -33 81 0 127 -14 179 -53 39 -30 45 -40 65 -117 18 -69
21 -101 17 -170 -10 -141 -46 -248 -106 -312 -30 -33 -82 -38 -141 -13 -20 8
-56 15 -81 15 -54 0 -76 8 -76 26 0 8 -11 19 -25 24 -14 5 -25 13 -25 18 0 12
-96 -2 -145 -21 -22 -8 -72 -18 -112 -21 -39 -2 -101 -15 -137 -27 -56 -19
-66 -27 -71 -51 -8 -36 -47 -62 -79 -54 -18 4 -28 17 -35 44 -24 85 -6 337 34
474 32 109 44 128 139 227 43 44 63 71 51 68 -19 -5 -117 -11 -141 -8 -17 2
-37 56 -29 80 4 15 18 21 53 26 26 3 85 13 132 22 120 23 240 39 425 58 88 9
165 18 170 19 14 5 58 -5 73 -17z m4117 -9 c20 -9 25 -18 25 -50 0 -46 -12
-72 -52 -114 l-29 -31 78 4 c84 5 186 -14 229 -42 13 -8 36 -35 52 -58 25 -39
27 -50 27 -142 0 -82 -5 -109 -23 -150 -31 -68 -111 -141 -175 -160 -28 -8
-65 -24 -84 -35 -19 -11 -52 -20 -75 -20 -36 0 -47 6 -86 46 -50 53 -45 67 23
58 36 -5 46 -1 109 45 118 87 146 131 146 228 0 44 -5 58 -25 78 -13 14 -33
25 -43 25 -16 0 -19 -7 -19 -40 0 -22 -7 -48 -16 -58 -8 -9 -28 -46 -45 -82
-36 -78 -104 -152 -155 -169 -32 -11 -40 -10 -61 6 -24 17 -36 53 -18 53 12 0
130 163 147 203 19 46 19 77 1 77 -8 0 -17 -4 -20 -9 -3 -4 -20 -11 -37 -15
-31 -6 -31 -6 -24 -55 5 -39 2 -57 -14 -89 -26 -51 -72 -89 -118 -98 -67 -13
-91 51 -52 143 11 28 11 34 -4 51 -19 21 -23 83 -7 113 6 11 32 38 58 62 59
53 169 164 203 206 29 34 44 37 84 19z m2410 -48 c13 -11 30 -65 40 -127 9
-56 28 -82 48 -65 17 14 83 7 108 -11 8 -7 21 -27 27 -46 11 -32 10 -35 -21
-65 -37 -34 -68 -51 -110 -61 -55 -12 -44 -64 29 -138 45 -46 118 -82 225
-111 31 -9 67 -24 79 -34 23 -19 23 -19 5 -60 -11 -23 -22 -42 -27 -42 -4 0
-37 -29 -74 -65 -62 -60 -70 -65 -110 -65 -70 0 -188 70 -231 138 -38 59 -60
65 -90 24 -11 -15 -44 -39 -74 -54 -78 -39 -225 -88 -268 -90 -75 -3 -121 40
-121 113 l0 36 88 -1 c75 0 95 3 148 28 86 39 128 86 144 161 6 33 14 71 17
84 6 23 5 24 -44 17 -64 -8 -92 11 -100 71 -4 34 -2 42 13 46 11 3 53 15 94
27 41 12 81 27 88 32 16 13 16 130 0 146 -6 6 -12 35 -12 63 -1 42 3 54 22 70
22 17 26 17 60 4 19 -9 41 -20 47 -25z m-2911 -50 c23 -17 60 -40 83 -51 41
-19 83 -73 75 -97 -5 -15 -44 -36 -108 -58 -87 -30 -94 -37 -94 -113 0 -36 5
-84 10 -106 12 -54 32 -338 24 -358 -16 -43 -110 -42 -167 3 -13 11 -49 25
-78 32 -50 11 -52 12 -24 18 46 9 105 39 112 56 6 16 -13 141 -27 178 -6 18
-11 16 -51 -21 -24 -22 -71 -57 -104 -78 -81 -51 -136 -95 -130 -105 2 -4 23
-10 45 -14 22 -3 40 -10 40 -15 0 -5 -30 -14 -67 -21 -38 -6 -75 -18 -84 -26
-22 -20 -92 -8 -117 20 -11 11 -23 35 -26 52 -10 47 56 114 144 145 36 13 95
42 131 65 37 23 86 52 109 64 54 27 90 63 90 89 0 18 -5 19 -54 14 -69 -7 -96
0 -129 33 -36 36 -34 70 8 154 43 84 68 105 113 89 25 -8 34 -20 44 -50 6 -22
16 -38 22 -36 6 2 24 39 41 83 16 43 34 83 40 87 20 16 88 -2 129 -33z m1229
-40 c14 -11 30 -20 35 -20 17 0 21 -83 5 -107 -10 -18 -23 -23 -56 -23 -57 0
-102 29 -111 70 -11 58 -8 70 27 85 44 20 70 18 100 -5z m-3566 -92 c33 -15
62 -47 62 -68 1 -8 -18 -30 -40 -49 -40 -33 -42 -33 -114 -29 -65 4 -79 9
-124 42 -55 41 -61 54 -32 80 35 32 195 47 248 24z m-549 -41 c18 -14 14 -78
-8 -114 l-19 -32 52 -35 c69 -46 103 -58 115 -43 22 27 50 95 57 135 5 33 13
45 32 53 38 14 51 11 69 -16 30 -46 28 -89 -6 -159 -18 -36 -30 -72 -26 -81 6
-18 142 -84 196 -95 46 -11 174 -65 205 -87 30 -22 34 -72 6 -97 -11 -10 -24
-29 -30 -44 -32 -76 -144 -95 -254 -43 -34 17 -98 57 -142 90 -121 91 -119 90
-158 54 -40 -37 -111 -84 -156 -102 -20 -9 -74 -15 -141 -15 -120 -1 -150 12
-150 64 0 34 19 51 49 43 12 -3 57 2 99 12 80 19 156 61 204 112 l28 29 -27
39 c-15 22 -33 46 -40 53 -7 7 -13 18 -13 24 0 5 -7 8 -15 4 -10 -3 -15 1 -15
14 0 10 -4 21 -9 25 -14 8 -162 -43 -176 -61 -15 -22 -55 -10 -55 16 0 31 53
110 73 110 28 0 125 72 132 98 3 13 17 35 30 48 19 19 31 23 52 18 16 -4 34
-11 41 -17z m4059 -56 c45 -21 63 -45 63 -86 0 -58 -50 -93 -115 -81 -40 8
-50 23 -58 85 -8 67 7 95 58 100 6 0 29 -8 52 -18z m173 -141 c0 -10 -5 -32
-11 -47 -7 -15 -17 -41 -24 -58 -7 -16 -18 -48 -25 -70 -21 -69 -52 -123 -76
-134 -13 -5 -30 -23 -38 -39 -19 -37 -72 -77 -112 -85 -72 -14 -98 71 -49 163
18 35 25 41 30 28 5 -14 36 12 147 122 77 77 144 140 149 140 5 0 9 -9 9 -20z
m2838 -6 c28 -20 30 -79 3 -135 l-19 -39 51 6 c29 3 69 12 90 20 54 20 65 18
103 -20 42 -42 46 -85 9 -114 -20 -16 -35 -19 -93 -14 -41 2 -77 0 -89 -7 -18
-9 -20 -15 -12 -48 14 -60 10 -125 -9 -163 -10 -21 -43 -52 -87 -82 -66 -44
-74 -47 -137 -48 -59 0 -69 3 -86 25 -11 14 -23 25 -28 25 -4 0 -16 7 -26 17
-17 15 -15 17 40 40 31 14 82 32 112 42 51 16 57 21 85 74 27 51 28 58 14 72
-14 14 -18 14 -45 0 -16 -8 -35 -15 -42 -15 -12 0 -62 -19 -147 -55 -16 -7
-47 -20 -69 -29 -21 -9 -64 -32 -96 -51 -68 -42 -83 -43 -115 -10 -55 54 -13
126 80 138 26 4 59 15 73 25 15 10 61 28 102 41 41 13 103 37 138 53 l62 29 0
45 0 45 -31 -16 c-16 -9 -47 -32 -68 -51 -44 -39 -61 -42 -86 -14 -31 34 -13
60 90 130 156 106 186 117 233 84z m-8593 -904 c16 -33 32 -60 37 -60 4 0 21
27 38 60 29 58 32 60 70 60 21 0 41 -3 43 -7 3 -5 -19 -50 -49 -101 l-54 -93
30 -57 c16 -31 43 -81 60 -110 34 -58 30 -66 -32 -60 -30 3 -37 10 -69 72
l-37 70 -28 -55 c-16 -30 -32 -62 -36 -71 -5 -13 -19 -18 -47 -18 -22 0 -42 4
-45 9 -4 5 19 53 51 108 l56 98 -52 100 c-28 55 -51 103 -51 108 0 4 19 7 43
7 43 0 43 0 72 -60z m335 20 l0 -40 -40 0 -40 0 0 40 0 40 40 0 40 0 0 -40z
m155 30 c4 -6 4 -33 0 -61 -7 -50 -34 -89 -62 -89 -19 0 -16 23 7 43 11 9 20
21 20 27 0 5 -9 10 -20 10 -17 0 -20 7 -20 40 0 39 1 40 34 40 19 0 38 -5 41
-10z m1085 -174 c0 -209 -5 -225 -81 -247 -89 -27 -159 28 -159 124 l0 47 39
0 c39 0 40 0 43 -41 3 -49 27 -71 56 -53 15 10 17 32 20 183 l2 171 40 0 40 0
0 -184z m160 144 l0 -40 -40 0 -40 0 0 40 0 40 40 0 40 0 0 -40z m2158 -138
l2 -173 88 2 87 2 3 -41 3 -42 -129 0 c-126 0 -130 1 -135 23 -8 33 -8 335 -1
374 6 32 9 34 43 31 l36 -3 3 -173z m322 138 l0 -40 -40 0 -40 0 0 40 0 40 40
0 40 0 0 -40z m1958 -177 l2 -213 -40 0 -40 0 0 208 c0 115 3 212 7 216 4 4
21 6 38 4 l30 -3 3 -212z m319 72 c2 -77 5 -150 8 -162 13 -56 101 -68 124
-17 7 15 11 84 11 174 l0 150 40 0 40 0 -1 -162 c-1 -223 -17 -260 -121 -274
-73 -10 -131 16 -157 70 -18 37 -21 61 -21 197 0 86 3 159 7 163 4 4 21 6 38
4 l30 -3 2 -140z m713 105 l0 -40 -40 0 -40 0 0 40 0 40 40 0 40 0 0 -40z
m1280 0 l0 -40 -40 0 -40 0 0 40 0 40 40 0 40 0 0 -40z m-5950 -30 c0 -33 3
-40 20 -40 16 0 20 -7 20 -30 0 -23 -4 -30 -20 -30 -19 0 -20 -7 -20 -95 0
-88 1 -95 20 -95 16 0 20 -7 20 -35 0 -34 -1 -35 -38 -35 -21 0 -48 7 -60 16
-21 14 -22 23 -22 130 0 107 -1 114 -20 114 -16 0 -20 7 -20 30 0 23 4 30 20
30 17 0 20 7 20 40 l0 40 40 0 40 0 0 -40z m6110 0 c0 -33 3 -40 20 -40 16 0
20 -7 20 -30 0 -23 -4 -30 -20 -30 -19 0 -20 -7 -20 -95 0 -88 1 -95 20 -95
16 0 20 -7 20 -35 0 -34 -1 -35 -40 -35 -68 0 -80 21 -80 145 0 82 -3 107 -14
111 -29 11 -29 64 0 64 10 0 14 12 14 40 l0 40 40 0 40 0 0 -40z m-7906 -44
c19 -8 37 -20 42 -27 5 -8 11 -68 14 -134 3 -66 8 -127 10 -135 7 -22 -68 -27
-76 -6 -5 14 -9 14 -34 1 -76 -39 -144 -2 -142 80 0 61 28 86 109 100 54 9 75
31 48 51 -27 20 -43 17 -70 -12 -32 -35 -82 -31 -77 6 10 74 95 110 176 76z
m324 3 c50 -17 63 -59 60 -196 l-3 -118 -35 0 -35 0 -3 109 c-1 61 -8 116 -14
123 -16 20 -55 15 -72 -9 -12 -17 -16 -48 -16 -126 l0 -103 -37 3 -38 3 0 155
0 155 33 3 c22 2 34 -2 38 -13 6 -14 9 -14 23 -2 31 28 55 31 99 16z m907 0
c61 -15 72 -43 77 -197 l3 -122 -37 0 c-27 0 -38 4 -38 15 0 19 -9 19 -34 0
-32 -24 -93 -19 -123 11 -22 22 -25 32 -20 71 6 59 31 82 103 96 67 14 84 38
39 59 -23 10 -29 9 -51 -15 -39 -42 -91 -32 -79 16 8 31 34 55 71 67 39 11 39
11 89 -1z m344 -12 c44 -21 66 -73 66 -152 -1 -107 -44 -155 -137 -155 -87 0
-141 61 -141 160 0 133 98 201 212 147z m482 13 c19 -5 48 -24 65 -41 26 -27
29 -38 32 -107 3 -68 1 -81 -20 -112 -30 -44 -61 -60 -121 -60 -85 0 -137 60
-137 157 0 50 26 119 53 141 15 13 59 29 82 31 6 1 26 -4 46 -9z m363 -1 c44
-20 56 -64 56 -198 l0 -121 -40 0 -40 0 0 113 c0 120 -6 137 -46 137 -41 0
-54 -35 -54 -147 l0 -103 -37 3 -38 2 0 155 0 155 38 3 c28 2 37 -1 37 -12 0
-13 5 -13 33 4 37 23 56 25 91 9z m284 -9 c26 -16 32 -17 32 -5 0 10 11 15 35
15 l35 0 0 -169 c0 -229 -14 -261 -120 -269 -62 -5 -112 14 -130 47 -18 34
-11 41 35 41 25 0 45 -4 45 -10 0 -14 64 -12 78 2 7 7 12 25 12 40 0 28 0 28
-25 12 -33 -21 -85 -12 -119 23 -71 71 -51 251 32 282 40 14 54 13 90 -9z
m1310 5 c46 -19 71 -58 79 -125 l6 -50 -97 0 c-96 0 -97 0 -90 -22 3 -13 11
-29 16 -35 14 -18 58 -16 79 3 10 9 31 14 53 12 l35 -3 -16 -33 c-20 -41 -59
-62 -113 -62 -90 0 -135 57 -132 169 2 77 23 119 72 143 43 22 59 22 108 3z
m300 -31 c3 -40 2 -42 -31 -48 -46 -9 -57 -37 -57 -146 l0 -90 -35 0 -35 0 0
160 0 160 35 0 c25 0 35 -4 35 -16 0 -13 5 -12 27 6 39 30 57 23 61 -26z m268
21 c38 -25 57 -81 52 -155 -6 -74 -28 -122 -65 -139 -34 -16 -88 -14 -103 4
-19 22 -29 9 -23 -30 3 -18 2 -50 -1 -69 -6 -33 -10 -36 -41 -36 l-35 0 0 220
0 220 35 0 c23 0 35 -5 35 -14 0 -11 8 -10 38 5 39 21 70 19 108 -6z m323 -3
c45 -33 63 -80 58 -153 -7 -110 -57 -156 -157 -147 -82 8 -120 60 -120 163 0
59 15 98 48 128 43 39 123 43 171 9z m293 18 c97 -27 132 -193 59 -281 -28
-33 -31 -34 -100 -34 -65 0 -73 2 -101 30 -52 52 -58 172 -13 234 20 27 77 61
103 61 8 0 32 -5 52 -10z m1054 -2 c18 -6 37 -22 43 -35 6 -13 11 -82 11 -153
l0 -130 -35 0 -34 0 -3 116 c-3 104 -5 118 -23 130 -16 11 -25 11 -45 1 -24
-12 -25 -17 -30 -127 l-5 -115 -35 0 -35 0 0 155 0 155 33 3 c24 2 32 -1 32
-12 0 -20 14 -21 30 -2 6 8 21 17 33 19 12 2 24 5 26 6 3 0 19 -4 37 -11z
m780 -13 c29 -19 54 -75 54 -124 l0 -41 -90 0 c-87 0 -90 -1 -90 -23 0 -13 5
-28 12 -35 17 -17 63 -15 78 3 7 9 29 15 52 15 36 0 39 -2 33 -22 -4 -13 -21
-35 -38 -50 -26 -23 -41 -28 -83 -28 -94 0 -140 64 -132 184 4 73 33 121 81
135 38 12 93 5 123 -14z m276 -25 c-3 -33 -8 -40 -26 -40 -45 0 -51 -13 -56
-127 l-5 -108 -38 -3 -38 -3 3 158 3 158 33 3 c28 3 32 0 32 -20 1 -21 2 -22
14 -6 14 19 56 37 71 31 6 -2 9 -21 7 -43z m211 36 c37 -16 64 -43 69 -71 5
-30 -53 -34 -81 -6 -24 24 -54 27 -70 7 -15 -18 2 -32 63 -50 81 -25 96 -39
96 -95 0 -43 -4 -53 -32 -76 -29 -25 -38 -27 -101 -23 -61 3 -72 7 -93 31 -13
16 -24 39 -24 53 0 20 5 24 31 24 21 0 40 -9 55 -25 26 -28 51 -32 80 -11 25
19 14 29 -65 56 -75 25 -90 41 -91 93 0 50 14 74 53 91 42 19 70 19 110 2z
m-7923 -156 l0 -160 -40 0 -40 0 0 160 0 160 40 0 40 0 0 -160z m1400 -1 l0
-160 -37 3 -38 3 -3 158 -3 157 41 0 40 0 0 -161z m2478 4 l-3 -158 -35 0 -35
0 -3 158 -3 157 41 0 41 0 -3 -157z m163 47 c30 -120 32 -119 65 28 l19 82 37
0 c30 0 38 -4 38 -17 -1 -10 -22 -81 -48 -158 l-47 -140 -39 0 c-36 0 -39 3
-51 40 -53 162 -85 265 -85 270 0 3 19 5 42 3 l42 -3 27 -105z m2829 -51 l0
-160 -37 3 -38 3 -3 145 c-1 79 0 150 2 157 3 7 21 13 41 13 l35 0 0 -161z
m157 66 c32 -127 33 -129 53 -55 44 164 36 150 81 150 32 0 40 -3 35 -15 -3
-8 -26 -80 -52 -160 l-46 -145 -38 2 -39 1 -37 111 c-20 61 -43 133 -50 159
l-12 48 41 -3 42 -3 22 -90z m1118 -65 l0 -155 -37 -3 -38 -3 0 161 0 161 38
-3 37 -3 0 -155z m341 69 c33 -136 33 -137 63 -19 l27 105 37 3 c26 2 37 -1
37 -10 0 -17 -93 -321 -116 -376 -16 -41 -34 -52 -86 -52 -25 0 -28 3 -28 35
0 28 4 35 20 35 50 0 44 50 -34 280 -14 41 -26 79 -26 83 0 5 19 7 43 5 l42
-3 21 -86z m-5076 -59 l0 -40 -75 0 -75 0 0 40 0 40 75 0 75 0 0 -40z"/>
<path d="M9996 12343 c-3 -21 -6 -60 -6 -86 0 -44 1 -47 16 -33 8 9 19 16 23
16 18 0 62 51 55 63 -20 32 -60 77 -70 77 -6 0 -14 -17 -18 -37z"/>
<path d="M9806 12226 c-9 -32 -16 -60 -13 -62 2 -2 18 -1 35 2 27 5 30 9 22
25 -6 10 -14 34 -18 55 l-7 37 -19 -57z"/>
<path d="M7396 11864 c-11 -29 -7 -74 8 -74 26 0 87 31 84 42 -3 7 -19 16 -36
20 -18 5 -32 13 -32 18 0 16 -17 11 -24 -6z"/>
<path d="M1840 12355 c-99 -29 -93 -24 -84 -64 5 -20 9 -57 9 -83 0 -60 9 -61
95 -10 l65 37 3 50 c2 28 7 54 13 60 28 28 -24 33 -101 10z"/>
<path d="M1564 12198 c-72 -79 -92 -125 -119 -282 l-6 -39 60 70 c33 39 76 82
96 97 19 15 38 38 41 52 7 28 -14 144 -26 144 -4 0 -25 -19 -46 -42z"/>
<path d="M2067 12115 c-8 -8 -23 -47 -32 -87 -18 -73 -59 -184 -76 -204 -16
-20 0 -21 68 -3 37 9 73 15 79 12 14 -5 24 -36 24 -75 0 -18 5 -28 14 -28 25
0 75 71 86 122 13 63 13 204 0 229 -24 43 -131 66 -163 34z"/>
<path d="M1898 12074 c-4 -7 -20 -15 -34 -18 -14 -4 -39 -17 -55 -29 l-30 -21
3 -118 c1 -65 5 -118 9 -118 22 0 61 72 89 161 28 89 38 174 18 143z"/>
<path d="M1574 11839 c-106 -142 -105 -139 -74 -139 11 0 20 4 20 8 0 5 25 14
55 21 l55 12 -1 52 c-1 29 -4 63 -8 76 -6 23 -9 21 -47 -30z"/>
<path d="M1990 11700 c-12 -8 -11 -10 5 -9 11 1 31 5 45 9 24 8 24 8 -5 9 -16
0 -37 -4 -45 -9z"/>
<path d="M2133 10878 c-38 -12 -52 -43 -30 -65 31 -31 87 9 87 62 0 17 -11 17
-57 3z"/>
<path d="M3380 10877 c-30 -10 -35 -17 -35 -42 0 -24 5 -31 23 -33 32 -5 62
25 62 60 0 31 -1 32 -50 15z"/>
<path d="M3665 10976 c-27 -20 -28 -115 -1 -145 25 -27 64 -27 87 1 24 26 25
104 3 136 -17 25 -60 29 -89 8z"/>
<path d="M4176 10968 c-9 -12 -16 -43 -16 -68 0 -57 22 -90 59 -90 43 0 64 31
64 95 0 43 -4 59 -19 70 -29 22 -70 18 -88 -7z"/>
<path d="M4841 10976 c-16 -19 -25 -79 -17 -110 9 -36 49 -61 75 -47 40 22 48
130 12 158 -22 17 -56 16 -70 -1z"/>
<path d="M6132 10978 c-23 -23 -12 -36 34 -40 51 -4 60 2 44 32 -12 23 -59 27
-78 8z"/>
<path d="M6667 10973 c-45 -51 -22 -163 33 -163 32 0 47 15 60 59 22 79 -46
156 -93 104z"/>
<path d="M6986 10975 c-14 -11 -19 -28 -20 -69 0 -64 21 -96 65 -96 37 0 59
33 59 90 0 25 -7 56 -16 68 -18 25 -59 29 -88 7z"/>
<path d="M7316 10975 c-27 -20 -28 -115 -2 -144 26 -29 67 -27 90 5 21 29 19
111 -4 139 -16 19 -59 19 -84 0z"/>
<path d="M9122 10978 c-26 -26 -13 -38 38 -38 34 0 50 4 50 13 0 21 -22 37
-50 37 -14 0 -31 -5 -38 -12z"/>
<path d="M784 9963 c33 -1398 151 -2444 402 -3563 221 -984 581 -1949 994
-2670 21 -36 47 -81 58 -100 52 -93 239 -388 252 -400 3 -3 22 -30 43 -60 79
-118 266 -363 342 -447 5 -6 28 -33 50 -60 135 -164 405 -432 740 -733 148
-133 536 -446 714 -575 45 -33 106 -78 134 -101 162 -127 707 -501 1027 -706
30 -19 89 -57 130 -83 124 -80 221 -135 235 -135 8 0 16 4 19 8 3 5 45 33 93
62 495 301 1077 706 1638 1140 150 116 433 352 530 441 28 26 68 61 90 80 22
18 146 139 276 269 242 242 387 406 544 615 49 66 92 122 95 125 21 20 231
338 323 490 175 289 366 665 505 995 109 258 188 466 270 710 57 170 141 441
172 560 12 44 37 139 57 210 19 72 41 157 48 190 8 33 29 128 49 210 231 995
364 2186 392 3498 l7 327 -5118 0 -5118 0 7 -297z m5251 -281 c4 -37 10 -94
14 -127 l6 -60 45 -6 c25 -3 72 -9 105 -13 l60 -6 45 120 c40 107 47 120 65
115 11 -3 69 -19 128 -35 60 -16 111 -31 114 -34 5 -5 -17 -163 -33 -238 -6
-25 -3 -28 19 -28 19 0 108 -35 168 -68 4 -1 37 41 74 95 38 54 71 102 75 106
6 7 213 -106 239 -129 2 -2 -17 -51 -43 -110 -25 -59 -46 -112 -46 -118 0 -6
34 -40 75 -74 l75 -63 100 76 c55 41 104 75 109 75 6 0 127 -117 190 -185 4
-5 -88 -124 -132 -172 l-30 -32 36 -40 c20 -22 48 -58 63 -81 15 -22 31 -40
35 -40 5 0 60 23 121 51 127 57 115 59 164 -31 14 -25 38 -67 54 -95 16 -27
29 -54 29 -60 0 -5 -45 -41 -99 -80 -55 -38 -100 -74 -100 -78 0 -4 11 -29 24
-55 13 -26 29 -66 35 -90 7 -23 15 -42 19 -42 4 0 54 9 112 20 157 30 141 39
175 -97 15 -65 30 -125 32 -134 4 -12 -23 -27 -116 -63 -67 -26 -121 -53 -121
-59 0 -17 22 -192 24 -194 1 -1 47 -7 102 -13 54 -6 114 -13 132 -16 l33 -5
-2 -134 -1 -134 -26 -5 c-15 -3 -58 -7 -97 -11 -149 -12 -142 -9 -149 -73 -4
-31 -9 -78 -12 -103 l-5 -46 120 -44 c67 -24 121 -49 121 -54 0 -11 -70 -258
-74 -263 -2 -1 -55 9 -119 23 -64 14 -121 25 -126 25 -4 0 -14 -21 -21 -47 -7
-27 -24 -69 -37 -95 -12 -26 -23 -51 -23 -55 1 -4 46 -39 100 -78 54 -38 99
-73 100 -77 0 -4 -30 -60 -66 -123 -76 -133 -57 -127 -198 -59 -49 24 -95 44
-102 44 -7 0 -27 -21 -45 -47 -18 -27 -45 -62 -62 -80 l-30 -32 26 -35 c15
-19 32 -40 39 -48 7 -7 33 -37 57 -66 36 -44 41 -55 31 -68 -21 -24 -171 -169
-179 -172 -4 -1 -49 31 -100 73 -51 41 -96 75 -101 75 -4 0 -35 -21 -68 -47
-34 -27 -71 -55 -82 -63 -21 -15 -21 -15 32 -134 l53 -118 135 -96 c74 -53
137 -99 140 -102 14 -16 226 -134 270 -151 65 -25 164 -25 228 -1 26 10 121
74 211 141 90 67 170 125 177 128 12 4 14 -22 14 -151 l0 -156 140 0 140 0 0
-335 -1 -335 -24 -16 c-50 -33 -203 -91 -285 -110 -61 -13 -125 -18 -225 -18
-120 0 -155 4 -248 28 -167 43 -271 89 -432 192 -304 193 -465 280 -623 334
-363 123 -615 10 -802 -360 -24 -47 -53 -110 -66 -140 l-23 -55 -13 35 c-29
79 -112 238 -160 307 -167 242 -407 316 -703 218 -102 -34 -312 -138 -435
-214 -352 -220 -441 -266 -598 -310 -254 -70 -545 -41 -762 76 l-50 27 0 340
0 341 135 -3 135 -3 0 155 c0 105 4 156 11 156 9 0 152 -101 169 -120 25 -26
174 -127 217 -147 46 -21 66 -25 132 -22 65 3 89 10 155 43 117 58 204 113
434 280 44 31 48 38 123 210 l34 78 -22 17 c-12 9 -49 36 -83 60 l-61 43 -62
-48 c-34 -27 -68 -55 -76 -62 -8 -7 -25 -21 -38 -29 -24 -16 -26 -15 -119 79
l-94 95 42 54 c23 30 45 56 48 59 3 3 20 23 37 46 l32 41 -37 45 c-20 26 -49
61 -63 80 l-26 33 -54 -19 c-30 -10 -75 -30 -101 -43 -77 -38 -80 -36 -153 87
-36 61 -65 112 -65 115 0 2 45 39 101 81 55 42 98 82 96 88 -36 91 -73 169
-83 173 -7 3 -63 -4 -124 -14 -104 -18 -112 -18 -120 -3 -19 35 -71 243 -63
249 4 4 59 27 121 51 l114 44 -6 30 c-4 17 -9 63 -13 103 -7 84 4 78 -160 89
l-103 6 -2 109 c-1 60 -2 124 -2 142 l-1 32 105 12 c58 6 117 12 133 12 26 1
27 3 28 54 0 28 4 73 8 100 5 31 4 50 -3 56 -6 5 -56 26 -111 47 -55 20 -104
40 -108 44 -7 6 48 246 58 258 2 2 51 -4 109 -12 138 -21 147 -20 153 4 3 12
21 53 39 91 19 39 34 74 34 78 0 4 -37 34 -81 67 -100 72 -124 94 -112 103 4
3 24 35 42 71 47 89 82 150 88 150 2 0 53 -22 112 -50 59 -27 112 -50 118 -50
6 0 23 19 38 43 15 23 43 61 62 84 l34 43 -43 52 c-24 29 -48 57 -53 63 -6 5
-23 25 -40 43 l-29 32 94 95 c52 52 98 95 102 95 5 0 50 -34 101 -75 50 -41
95 -75 98 -75 3 0 26 17 50 38 24 21 61 50 81 63 l37 25 -49 114 c-28 63 -50
117 -50 120 0 4 49 35 110 69 110 63 134 69 147 34 4 -10 9 -20 13 -23 3 -3
32 -37 63 -76 l58 -72 92 40 c50 23 93 41 94 42 0 1 -8 51 -18 111 -10 61 -19
117 -19 125 0 10 21 21 63 33 34 9 92 25 129 36 51 15 70 17 75 8 5 -7 26 -59
49 -117 39 -102 41 -105 70 -103 16 2 63 6 105 9 l76 6 7 77 c4 42 10 100 13
129 l6 53 138 -2 138 -1 6 -66z m-3601 -54 c-35 -69 -98 -151 -184 -243 -111
-118 -172 -231 -177 -328 -3 -38 1 -72 9 -87 14 -25 82 -69 92 -59 3 3 -3 29
-14 57 -25 65 -26 108 -3 116 10 4 46 -8 92 -32 42 -22 94 -43 116 -46 50 -9
119 14 158 52 40 38 87 124 87 160 0 16 8 39 18 51 19 23 50 28 322 56 279 29
493 84 613 158 26 16 50 28 51 26 9 -9 -32 -174 -76 -307 l-30 -94 -47 7
c-124 17 -121 18 -56 -15 33 -16 64 -31 69 -33 5 -2 4 -18 -3 -38 -14 -42
-108 -207 -133 -234 -18 -19 -19 -19 -76 10 -31 16 -61 31 -67 33 -5 3 14 -20
43 -50 l53 -55 -71 -66 c-72 -67 -193 -137 -234 -137 -16 0 -32 21 -70 95 -28
52 -51 93 -52 92 -2 -2 8 -47 22 -101 14 -54 22 -101 19 -105 -4 -3 -47 -6
-96 -6 -49 0 -89 0 -89 -2 0 -1 14 -17 30 -35 104 -112 206 -306 216 -411 l6
-52 -22 35 c-61 96 -145 169 -212 185 -32 8 -33 6 -13 -42 8 -20 14 -38 12
-40 -2 -2 -46 13 -96 32 -69 27 -105 35 -138 33 -44 -3 -47 -5 -61 -43 -17
-47 -27 -232 -15 -293 l8 -42 95 -34 c52 -18 109 -40 125 -50 l30 -17 -60 6
c-33 3 -128 8 -211 12 -164 7 -223 -2 -306 -43 -55 -28 -58 -28 -58 -10 0 45
106 115 239 157 l73 24 -6 49 c-16 138 -103 259 -263 363 -84 56 -128 98 -174
165 -54 79 -80 151 -86 238 -7 102 11 167 94 336 104 210 126 300 84 338 -17
15 -35 17 -120 14 l-101 -3 0 36 c0 20 -6 39 -12 42 -10 3 -14 -16 -15 -73 -2
-43 -7 -90 -13 -105 -8 -20 -7 -32 5 -48 20 -29 19 -44 -8 -100 -21 -42 -25
-46 -37 -32 -12 14 -15 14 -32 -5 -10 -11 -28 -20 -39 -20 -11 0 -29 -4 -39
-10 -16 -9 -19 -5 -25 30 -4 21 -4 48 0 59 4 14 0 23 -15 31 -22 12 -22 12 -2
33 11 12 25 32 31 45 13 24 49 29 81 12 24 -13 36 3 45 62 6 37 4 51 -9 63 -9
9 -16 22 -16 29 0 34 -142 25 -183 -12 -16 -14 -19 -14 -27 -2 -15 23 -12 59
7 91 29 48 105 71 254 75 99 3 135 8 171 24 58 25 98 27 212 11 120 -18 199
-12 261 20 66 35 68 34 49 -3z m6655 -64 c-30 -48 -86 -119 -125 -158 -169
-170 -244 -359 -178 -450 17 -23 79 -54 90 -44 2 3 -5 24 -17 47 -29 61 -35
104 -15 120 13 11 31 6 114 -33 54 -25 112 -46 128 -46 49 0 127 45 161 93 38
55 63 109 63 139 0 27 23 52 55 62 11 3 97 12 190 21 339 30 551 81 699 167
27 16 51 27 54 24 7 -8 -34 -176 -72 -291 -36 -113 -27 -107 -146 -92 l-55 6
73 -34 72 -34 -25 -58 c-35 -80 -127 -223 -143 -223 -7 0 -37 14 -67 31 -30
17 -55 27 -55 22 1 -4 21 -28 45 -53 25 -25 45 -48 45 -52 0 -13 -116 -110
-170 -142 -55 -33 -112 -56 -136 -56 -7 0 -35 42 -63 93 -28 50 -51 87 -51 82
0 -6 9 -43 20 -83 29 -105 28 -110 -26 -118 -25 -3 -65 -4 -90 -1 -24 2 -44 3
-44 1 0 -3 21 -30 47 -62 95 -116 165 -246 189 -348 8 -36 13 -71 11 -77 -2
-6 -20 14 -41 45 -20 31 -57 74 -82 96 -42 38 -128 81 -140 70 -3 -3 3 -22 12
-42 10 -19 15 -38 13 -41 -3 -2 -38 9 -77 26 -41 17 -99 32 -134 35 -62 6 -63
6 -75 -22 -42 -100 -39 -364 3 -364 25 0 214 -74 214 -83 0 -6 -22 -7 -52 -3
-29 3 -118 9 -198 12 -162 8 -220 -1 -306 -43 -30 -14 -57 -24 -60 -20 -4 3 3
21 14 39 34 54 110 93 281 144 26 8 8 123 -30 195 -41 75 -135 176 -203 214
-61 36 -158 125 -198 183 -40 59 -67 132 -78 212 -13 100 7 185 79 329 83 166
111 242 111 307 0 50 -2 55 -27 65 -16 6 -69 9 -120 7 l-93 -4 0 38 c0 21 -4
38 -10 38 -5 0 -10 -22 -10 -48 0 -27 -5 -74 -11 -105 -10 -51 -10 -60 6 -77
19 -21 14 -49 -23 -108 -18 -31 -21 -32 -30 -16 -10 17 -11 17 -29 -3 -10 -12
-36 -23 -59 -27 -41 -6 -42 -6 -48 29 -4 20 -4 45 -1 55 4 13 1 22 -9 26 -18
7 -20 20 -6 37 62 76 54 72 102 61 l45 -11 10 55 c9 49 8 59 -11 87 -33 52
-122 56 -193 10 -14 -9 -27 -14 -30 -11 -12 11 -6 75 9 98 35 53 163 85 294
73 60 -5 76 -3 105 14 60 35 112 41 213 24 120 -20 231 -13 294 19 26 13 49
22 51 21 2 -1 -20 -41 -50 -89z m-3364 -5454 c-67 -118 -141 -216 -238 -315
-155 -158 -246 -313 -266 -458 -13 -91 -1 -137 49 -187 18 -19 100 -53 108
-46 3 3 -8 34 -24 68 -20 44 -28 80 -29 118 0 55 0 55 33 58 24 2 62 -12 145
-53 110 -56 113 -57 182 -53 80 5 119 22 182 81 57 52 123 180 123 236 0 42
22 68 77 89 15 6 138 21 273 32 499 43 832 126 1019 251 24 17 45 28 48 26 6
-7 -52 -258 -81 -352 -55 -178 -70 -215 -86 -215 -8 0 -55 7 -105 15 -49 8
-97 15 -105 14 -17 0 72 -46 143 -73 26 -10 47 -23 47 -31 0 -40 -207 -395
-230 -395 -8 0 -128 62 -168 87 -47 29 -31 4 43 -68 41 -41 75 -77 75 -80 0
-13 -98 -108 -160 -156 -109 -84 -268 -155 -288 -130 -10 13 -72 128 -116 215
-15 30 -29 52 -32 49 -3 -2 11 -69 31 -147 20 -78 33 -145 30 -149 -4 -3 -65
-6 -136 -6 -71 0 -129 -3 -129 -6 0 -3 10 -14 21 -25 26 -23 134 -163 171
-220 40 -62 113 -213 131 -269 21 -66 40 -170 35 -187 -3 -7 -15 6 -28 32 -50
98 -125 181 -212 237 -43 26 -126 58 -133 51 -3 -2 6 -34 20 -71 13 -37 22
-67 20 -67 -1 0 -41 17 -87 38 -93 43 -217 75 -269 70 -26 -2 -37 -10 -48 -32
-44 -92 -61 -282 -39 -426 14 -94 3 -83 123 -120 36 -11 224 -89 234 -97 14
-11 -19 -10 -139 3 -156 17 -451 20 -527 5 -29 -6 -90 -28 -135 -50 -67 -33
-84 -37 -86 -25 -5 22 34 74 87 115 59 45 141 83 248 114 46 14 89 28 95 31
16 10 2 133 -22 197 -55 147 -197 308 -345 392 -71 40 -139 99 -205 178 -102
121 -157 251 -167 397 -9 139 12 213 122 435 111 225 155 347 155 434 0 82
-17 97 -118 107 -42 4 -105 2 -141 -3 -37 -6 -69 -8 -73 -6 -5 2 -8 23 -8 47
0 23 -6 50 -14 61 -11 16 -14 4 -19 -91 -3 -60 -13 -130 -21 -156 -15 -47 -14
-48 11 -78 31 -37 28 -60 -17 -143 -31 -57 -32 -57 -49 -36 l-17 21 -31 -31
c-20 -20 -42 -31 -60 -31 -15 0 -37 -3 -49 -6 -17 -4 -23 2 -34 35 -7 24 -10
56 -6 80 5 34 3 42 -14 51 -20 11 -28 40 -11 40 4 0 22 23 40 51 35 57 25 54
138 33 l31 -6 17 75 c16 74 16 74 -7 109 -13 20 -28 44 -34 54 -9 15 -24 18
-95 18 -87 0 -121 -10 -166 -53 l-22 -21 -12 40 c-26 87 29 162 145 196 45 13
104 19 231 21 165 3 171 3 230 32 81 40 158 48 260 26 52 -12 126 -18 210 -18
111 0 138 3 187 22 31 12 67 31 80 41 38 32 39 23 3 -40z"/>
<path d="M5655 9283 c-203 -26 -425 -93 -605 -182 -171 -85 -234 -128 -401
-269 -293 -246 -510 -618 -595 -1016 -32 -148 -44 -446 -25 -604 47 -383 220
-752 493 -1045 l63 -68 109 3 108 3 -157 65 c-142 59 -159 68 -177 101 l-20
36 34 79 34 79 44 3 c24 2 61 -4 82 -13 67 -26 71 -24 105 73 17 48 41 114 53
147 12 33 34 94 50 135 16 41 49 131 74 200 25 69 72 199 106 290 34 91 88
239 121 329 33 90 62 167 64 171 8 13 75 -12 75 -27 0 -8 -11 -42 -24 -76 -21
-55 -237 -640 -348 -942 -22 -60 -60 -163 -84 -229 -24 -65 -44 -120 -44 -123
0 -2 28 -17 63 -33 37 -17 71 -41 86 -60 l23 -32 -35 -87 -35 -86 1131 -3
1132 -2 45 48 c161 173 263 320 347 500 137 296 192 582 173 901 -18 285 -94
551 -227 786 -61 108 -72 125 -146 223 -280 375 -715 637 -1185 713 -87 14
-163 18 -297 17 -99 0 -193 -3 -210 -5z m390 -427 l35 -15 0 -456 0 -456 -102
3 -103 3 -3 335 c-2 184 0 390 3 456 6 111 9 123 28 132 32 15 103 14 142 -2z
m195 -61 c30 -15 30 -16 30 -106 l0 -91 31 26 c19 17 43 26 64 26 31 0 37 -7
146 -175 63 -96 131 -203 152 -238 21 -34 43 -63 48 -65 5 -2 9 -8 9 -13 0 -6
18 -37 40 -69 22 -32 40 -62 40 -66 0 -4 10 -18 21 -31 26 -27 21 -36 -50 -78
-28 -16 -51 -33 -51 -37 0 -5 81 -8 179 -8 142 0 180 3 184 14 11 29 137 25
137 -4 0 -5 23 -10 51 -12 l51 -3 -46 -47 c-28 -29 -43 -54 -40 -62 9 -24 -15
-84 -37 -91 -16 -5 -19 -16 -19 -63 0 -53 2 -58 30 -74 l30 -17 0 -115 0 -114
-30 -25 c-24 -21 -30 -33 -30 -66 0 -23 5 -41 10 -41 6 0 19 -9 30 -20 18 -18
20 -33 20 -130 0 -97 -2 -112 -20 -130 -29 -29 -106 -28 -137 2 -21 20 -23 30
-23 117 0 120 5 137 41 153 25 11 29 18 29 55 0 31 -4 43 -14 43 -8 0 -24 12
-35 26 -18 23 -21 41 -21 126 0 108 8 134 46 148 22 9 24 15 24 75 0 74 -1 74
-74 16 -98 -78 -367 -181 -473 -181 l-43 0 0 215 0 215 76 -7 76 -6 -12 23
c-12 22 -341 525 -389 595 l-21 30 0 -293 0 -292 -85 0 -85 0 0 425 0 424 28
15 c35 20 76 20 112 1z m-437 -110 c37 -26 42 -39 38 -105 -1 -14 -17 -39 -36
-57 l-33 -32 31 -3 32 -3 3 -87 3 -88 -331 0 -330 0 0 90 0 90 91 0 c81 0 90
2 79 15 -7 9 -11 17 -8 20 2 2 40 9 83 14 l80 10 -100 -4 c-99 -4 -175 -17
-310 -54 -38 -11 -72 -18 -76 -15 -3 2 4 25 17 50 13 26 21 50 19 55 -3 4 11
11 32 14 21 3 82 15 135 26 102 21 160 27 323 33 88 3 105 6 139 30 48 33 71
33 119 1z m35 -482 l-3 -88 -327 -2 -328 -3 0 90 0 90 330 0 331 0 -3 -87z m2
-193 l0 -90 -314 0 c-173 0 -321 3 -330 6 -13 5 -16 23 -16 90 l0 84 330 0
330 0 0 -90z m653 -129 c15 -25 17 -59 17 -250 0 -182 -2 -221 -14 -221 -28 0
-99 -39 -138 -76 -75 -71 -85 -135 -43 -279 42 -143 83 -205 169 -254 30 -17
57 -35 61 -41 4 -7 -194 -10 -634 -10 -353 0 -641 4 -641 8 0 4 15 16 33 26
114 65 133 84 155 143 65 183 55 284 -38 386 -44 49 -155 117 -189 117 -18 0
-14 24 34 187 25 84 45 159 45 165 0 35 -64 62 -96 40 -6 -4 -36 -73 -67 -154
-31 -80 -62 -157 -68 -171 l-11 -24 -88 12 c-163 23 -178 45 -187 266 l-6 158
844 1 845 0 17 -29z m98 -1161 c15 -9 19 -22 19 -70 l0 -60 -652 0 c-359 0
-677 -3 -705 -6 l-53 -7 0 65 c0 36 5 69 12 76 16 16 1349 17 1379 2z m249
-370 l0 -210 -935 0 -935 0 0 210 0 210 935 0 935 0 0 -210z"/>
<path d="M7118 7484 c-12 -11 -10 -172 2 -179 6 -3 10 3 10 14 0 29 40 29 47
0 11 -39 23 3 23 78 0 68 -11 100 -24 68 -8 -23 -44 -19 -48 6 -2 11 -6 17
-10 13z"/>
<path d="M5742 8611 c10 -17 9 -24 -7 -42 -20 -21 -20 -21 0 -18 10 2 26 17
35 32 13 24 13 29 0 37 -27 17 -42 13 -28 -9z"/>
<path d="M5548 8553 c7 -3 16 -2 19 1 4 3 -2 6 -13 5 -11 0 -14 -3 -6 -6z"/>
<path d="M5763 8390 c0 -36 2 -50 4 -32 2 17 2 47 0 65 -2 17 -4 3 -4 -33z"/>
<path d="M5763 8205 c0 -33 2 -45 4 -27 2 18 2 45 0 60 -2 15 -4 0 -4 -33z"/>
<path d="M5763 8015 c0 -33 2 -45 4 -27 2 18 2 45 0 60 -2 15 -4 0 -4 -33z"/>
<path d="M4720 5990 c0 -14 152 -119 251 -174 l67 -36 70 12 c127 21 270 -25
397 -129 33 -27 68 -52 78 -56 46 -17 284 -27 419 -17 180 13 222 23 261 61
52 49 160 108 238 131 59 16 89 19 150 14 l76 -6 86 52 c48 29 115 73 149 98
l61 45 -244 2 c-550 6 -2059 8 -2059 3z"/>
<path d="M5150 5520 c0 -5 9 -10 19 -10 27 0 27 -1 55 -132 13 -64 31 -129 40
-146 33 -63 158 -94 205 -51 22 21 23 27 20 138 -3 89 -1 115 9 114 31 -7 6
16 -45 40 -62 29 -84 27 -41 -4 20 -15 30 -34 38 -76 17 -80 17 -167 1 -187
-32 -39 -110 -5 -130 57 -10 32 -41 200 -41 225 0 6 7 12 15 12 23 0 18 17 -7
24 -37 10 -138 7 -138 -4z"/>
<path d="M6463 5493 c-43 -27 -72 -67 -59 -80 4 -5 15 1 24 12 24 29 63 55 84
55 26 0 48 -28 48 -64 0 -44 -49 -118 -124 -188 -33 -32 -59 -58 -56 -58 3 0
48 -2 100 -3 52 -2 103 -6 112 -11 13 -6 20 0 32 23 23 43 21 65 -3 51 -23
-12 -118 -14 -125 -2 -3 5 29 39 70 76 73 67 74 68 74 117 0 40 -5 55 -25 74
-34 35 -97 34 -152 -2z"/>
<path d="M4940 5485 c-57 -24 -78 -46 -36 -38 28 6 27 8 66 -160 24 -106 26
-147 5 -147 -8 0 -15 -4 -15 -10 0 -14 13 -13 71 10 28 11 79 23 113 27 67 7
76 13 76 60 0 44 -16 50 -35 13 -16 -32 -49 -50 -90 -50 -27 0 -31 8 -56 125
-10 50 -23 107 -28 127 -8 32 -6 39 13 52 l21 15 -25 0 c-14 -1 -50 -11 -80
-24z"/>
<path d="M6732 5437 c-52 -55 -68 -186 -32 -264 21 -47 69 -83 111 -83 92 0
124 256 43 343 -33 35 -91 37 -122 4z m103 -142 c-8 -115 -23 -168 -47 -173
-39 -7 -51 123 -23 233 21 81 34 94 58 64 17 -22 18 -34 12 -124z"/>
<path d="M4830 5437 c-8 -8 -75 -51 -148 -97 l-132 -84 6 -35 c4 -20 8 -38 10
-40 8 -9 22 13 28 43 4 23 17 43 37 57 17 12 32 20 33 18 7 -9 75 -220 81
-253 6 -28 4 -37 -9 -42 -16 -6 -23 -34 -8 -34 4 0 26 15 49 34 23 18 56 39
73 46 37 15 39 32 4 28 -30 -3 -29 -5 -83 172 l-29 95 26 22 c31 27 55 29 72
8 21 -26 31 -17 28 27 -3 45 -15 56 -38 35z"/>
<path d="M6952 5331 c-46 -82 -39 -229 15 -300 31 -41 85 -66 112 -52 50 27
73 169 43 269 -19 62 -76 122 -116 122 -27 0 -36 -6 -54 -39z m99 -18 c6 -16
10 -68 10 -118 -2 -140 -25 -213 -56 -171 -21 28 -28 113 -16 199 16 114 40
148 62 90z"/>
<path d="M4489 5211 c-13 -10 -39 -26 -56 -35 -39 -19 -44 -39 -9 -30 23 5 26
1 59 -108 49 -155 69 -237 62 -248 -3 -6 -19 -10 -35 -10 -26 0 -50 -22 -50
-44 0 -13 37 -5 68 14 84 51 88 109 23 307 -43 128 -48 153 -31 153 6 0 10 5
10 10 0 15 -15 12 -41 -9z"/>
<path d="M7210 5171 c-40 -41 -50 -74 -50 -154 0 -54 18 -127 32 -127 4 0 8
-7 8 -15 0 -22 70 -65 107 -65 44 0 63 30 63 98 0 69 -30 129 -73 147 -43 18
-51 10 -25 -26 28 -37 37 -144 15 -173 -14 -19 -14 -19 -34 1 -41 41 -38 179
6 263 17 34 20 35 79 38 34 2 62 7 62 11 0 20 -52 41 -101 41 -47 0 -55 -3
-89 -39z"/>
<path d="M4337 5116 c-49 -30 -54 -36 -39 -45 10 -6 10 -17 0 -54 -7 -26 -15
-47 -18 -47 -4 0 -17 11 -30 25 -19 20 -21 27 -10 40 25 30 4 24 -65 -18 -63
-38 -67 -42 -43 -45 14 -2 47 -21 73 -44 36 -32 44 -45 39 -62 -17 -58 -67
-165 -85 -185 -32 -34 -18 -34 47 1 41 23 53 34 41 36 -15 3 -17 10 -12 30 17
74 26 102 33 106 4 3 25 -11 45 -31 36 -34 37 -36 21 -54 -24 -26 -14 -31 21
-12 59 32 80 42 108 52 37 14 34 31 -6 31 -25 0 -45 12 -91 53 l-59 53 12 49
c14 57 48 125 61 125 6 0 10 5 10 10 0 15 -11 12 -53 -14z"/>
<path d="M1920 9540 c-13 -8 -13 -10 2 -10 9 0 18 -4 20 -9 2 -5 34 -7 72 -4
l70 6 -50 13 c-59 16 -94 17 -114 4z"/>
<path d="M2310 8194 c0 -3 11 -22 26 -42 l25 -37 -3 34 c-2 24 -9 36 -25 42
-13 5 -23 6 -23 3z"/>
<path d="M8605 9535 c-20 -10 -23 -13 -7 -9 13 3 29 1 35 -5 8 -6 37 -7 72 -4
l60 6 -50 14 c-62 16 -73 16 -110 -2z"/>
<path d="M9022 8161 c28 -37 38 -38 38 -7 0 23 -16 36 -47 36 -11 0 -9 -7 9
-29z"/>
<path d="M4980 3985 c-25 -15 -37 -24 -27 -21 53 17 67 17 91 0 23 -14 31 -15
54 -4 15 7 52 12 82 12 l55 -1 -45 15 c-25 9 -72 17 -105 20 -51 4 -67 1 -105
-21z"/>
<path d="M5581 2047 c24 -30 46 -53 49 -51 3 1 4 20 2 42 -3 34 -8 41 -30 47
-15 3 -35 8 -46 12 -13 4 -6 -11 25 -50z"/>
</g>
</svg>
