<?xml version="1.0" encoding="UTF-8"?>
<svg version="1.1" xmlns="http://www.w3.org/2000/svg" width="360" height="509">
<path d="M0 0 C118.8 0 237.6 0 360 0 C360 167.97 360 335.94 360 509 C241.2 509 122.4 509 0 509 C0 341.03 0 173.06 0 0 Z " fill="#FEFEFE" transform="translate(0,0)"/>
<path d="M0 0 C0.11686541 16.06390656 0.2050036 32.12767498 0.25906086 48.19190407 C0.28482916 55.65102993 0.31995291 63.10989147 0.37719727 70.56884766 C0.42707493 77.07102779 0.45930102 83.57301647 0.47044247 90.07538259 C0.47695405 93.5176046 0.49222794 96.95927896 0.52865028 100.40132523 C0.56900558 104.24633198 0.56994661 108.09080576 0.56762695 111.93603516 C0.59459152 113.64291504 0.59459152 113.64291504 0.62210083 115.38427734 C0.56580492 123.99742771 0.56580492 123.99742771 -2.41047668 127.7539978 C-5 130 -5 130 -7 130 C-7.22573668 130.5506374 -7.45147337 131.1012748 -7.68405056 131.66859818 C-9.40287153 134.71374734 -11.58037084 136.8290534 -14.05519104 139.3024292 C-14.57480547 139.82445805 -15.09441991 140.3464869 -15.62978023 140.8843348 C-17.37159068 142.63177967 -19.12045601 144.37198636 -20.86938477 146.11230469 C-22.11969542 147.36368826 -23.36957301 148.61550466 -24.61904907 149.86772156 C-28.01307878 153.26660001 -31.41332784 156.65919347 -34.81485105 160.05057049 C-38.36910109 163.59604471 -41.91808585 167.14678212 -45.46775818 170.69683838 C-51.42716812 176.65531174 -57.39043947 182.60989825 -63.35620117 188.56201172 C-70.26350902 195.45357612 -77.16555823 202.35037129 -84.064632 209.2501781 C-90.69261504 215.87877036 -97.32344545 222.50450614 -103.95588493 229.12863922 C-106.78321731 231.95243188 -109.60969047 234.77708054 -112.43551826 237.60237885 C-115.75815534 240.92401518 -119.08331746 244.24310287 -122.41049576 247.5601902 C-123.63487885 248.78164011 -124.85840449 250.0039502 -126.08103371 251.22715569 C-127.74232112 252.88892998 -129.40662535 254.54762023 -131.0717926 256.20550537 C-132.00481484 257.13685177 -132.93783709 258.06819817 -133.89913273 259.02776718 C-136 261 -136 261 -137 261 C-137.14028863 244.82300681 -137.24602851 228.64621154 -137.31087303 212.46875668 C-137.34178459 204.95690997 -137.38391248 197.44544168 -137.45263672 189.93383789 C-137.51252263 183.38513559 -137.55116881 176.83670738 -137.56453097 170.28773886 C-137.57233956 166.82134756 -137.5906323 163.35574025 -137.63438034 159.88960075 C-137.68287242 156.01601572 -137.68393394 152.14319101 -137.68115234 148.26928711 C-137.702724 147.12561172 -137.72429565 145.98193634 -137.746521 144.80360413 C-137.70568087 139.54809338 -137.57780613 135.99372431 -134.09805298 131.88551331 C-133.08683046 130.90113644 -132.05572072 129.93649483 -131 129 C-130.2575 128.195625 -129.515 127.39125 -128.75 126.5625 C-127 125 -127 125 -125 125 C-124.73832031 124.39929688 -124.47664062 123.79859375 -124.20703125 123.1796875 C-122.92577201 120.86595723 -121.75192918 119.7454167 -119.6875 118.125 C-117.22532346 116.11422249 -115.16213193 114.11679743 -113.1875 111.625 C-112.465625 110.75875 -111.74375 109.8925 -111 109 C-110.34 109 -109.68 109 -109 109 C-108.75689842 108.4321365 -108.51379684 107.86427299 -108.26332855 107.27920151 C-106.76010855 104.56720605 -104.97937673 102.72755704 -102.78674316 100.53277588 C-101.90339798 99.64379105 -101.0200528 98.75480621 -100.10993958 97.83888245 C-99.12873188 96.86156312 -98.14742041 95.88434797 -97.16601562 94.90722656 C-96.1340807 93.87258105 -95.10257162 92.83751066 -94.07145691 91.80204773 C-91.27248373 88.99395862 -88.46722322 86.19223045 -85.66052055 83.39186954 C-82.72629372 80.46270407 -79.79694719 77.5286646 -76.86682129 74.59539795 C-71.94752251 69.67246108 -67.02402237 64.75375559 -62.09814453 59.83740234 C-56.39693214 54.14708627 -50.70297694 48.44958454 -45.01271486 42.74831986 C-40.13058335 37.85712541 -35.24458138 32.96982299 -30.35529661 28.08577895 C-27.43341829 25.16702426 -24.51292141 22.2469218 -21.59590149 19.32331085 C-18.85568808 16.57733863 -16.11066399 13.83626979 -13.36178017 11.09897804 C-12.35141061 10.09126242 -11.34275657 9.08182353 -10.3359127 8.07058525 C-8.96630259 6.6955476 -7.58997113 5.32721432 -6.21325684 3.95928955 C-5.05845951 2.8056233 -5.05845951 2.8056233 -3.88033295 1.62865067 C-2 0 -2 0 0 0 Z " fill="#345698" transform="translate(304,80)"/>
<path d="M0 0 C15.89890748 -0.16373954 31.79758624 -0.28706682 47.6971283 -0.3626852 C55.08011105 -0.3987343 62.46256901 -0.44785481 69.84521484 -0.52807617 C76.28222642 -0.59798855 82.71885785 -0.64304075 89.15623856 -0.65861946 C92.56299165 -0.6677222 95.9686575 -0.68901356 99.37506104 -0.7401104 C103.1842879 -0.79099124 106.99126879 -0.79792044 110.80078125 -0.79467773 C111.92215988 -0.81984467 113.04353851 -0.8450116 114.19889832 -0.87094116 C120.96534724 -0.80868971 124.53385101 0.27456322 129.31242371 5.14173985 C130.14777397 6.06157862 130.14777397 6.06157862 131 7 C131.93134766 7.89166367 132.86269531 8.78332733 133.82226562 9.70201111 C134.67498047 10.55694656 135.52769531 11.41188202 136.40625 12.29272461 C137.12488976 13.01114532 137.12488976 13.01114532 137.85804749 13.74407959 C139.40775355 15.29447055 140.95390825 16.84834926 142.5 18.40234375 C143.58693803 19.49115104 144.67410015 20.57973466 145.76147461 21.66810608 C148.59783223 24.50824889 151.43117164 27.3513836 154.26385498 30.19519043 C157.16494253 33.10657891 160.06892713 36.01507467 162.97265625 38.92382812 C168.65124818 44.6130867 174.32664916 50.30551499 180 56 C174.25911114 63.02305029 167.80306544 69.3234361 161.3828125 75.71484375 C160.15805511 76.93773316 158.93352047 78.1608457 157.709198 79.38417053 C154.50571366 82.58385956 151.29923634 85.78053248 148.09210205 88.9765625 C144.81217384 92.246212 141.53511874 95.5187384 138.2578125 98.79101562 C131.84133235 105.19681119 125.421683 111.59942049 119 118 C115.60595087 116.53237312 113.40995342 114.64824703 110.81738281 112.02856445 C110.00263489 111.21043777 109.18788696 110.3923111 108.34844971 109.5493927 C107.47549255 108.66297592 106.6025354 107.77655914 105.703125 106.86328125 C104.31595494 105.46816115 102.92878214 104.07304377 101.54145432 102.67808056 C99.5985963 100.72209932 97.66030775 98.76162068 95.7220459 96.80108643 C92.34905243 93.39019258 88.97143834 89.98389247 85.59002686 86.5813446 C83.79297047 84.77214595 81.99859306 82.96028103 80.20733643 81.14533997 C75.81470816 76.71803756 71.36700598 72.45442923 66.59979248 68.43083191 C64.44877438 66.50699155 62.8006984 64.25087299 61 62 C59.89828098 61.01792997 58.77841928 60.05610376 57.6484375 59.10668945 C51.69960186 53.95300927 46.18897307 48.35334402 40.625 42.79296875 C39.44823242 41.61941977 38.27139198 40.44594384 37.09448242 39.27253723 C34.6453663 36.82937057 32.19828655 34.38418513 29.75244141 31.93774414 C26.61229408 28.79749435 23.46527268 25.66422956 20.31652832 22.53260326 C17.89229203 20.11944681 15.47257509 17.70179843 13.05413818 15.28283119 C11.89467506 14.12455023 10.73358521 12.96789534 9.57086182 11.81288719 C7.95524125 10.20700364 6.34600781 8.59498226 4.73828125 6.98120117 C3.82087158 6.06521652 2.90346191 5.14923187 1.95825195 4.20549011 C0 2 0 2 0 0 Z " fill="#345699" transform="translate(41,78)"/>
<path d="M0 0 C3.63 0 7.26 0 11 0 C11.01401855 2.17940186 11.01401855 2.17940186 11.02832031 4.40283203 C11.06825412 9.80402045 11.13402342 15.20464133 11.20751953 20.60546875 C11.23570929 22.94100645 11.2569337 25.2766392 11.27099609 27.61230469 C11.29245246 30.97380159 11.33911906 34.33415807 11.390625 37.6953125 C11.39185364 38.73615997 11.39308228 39.77700745 11.39434814 40.84939575 C11.51558272 46.87812225 12.01350129 50.38980789 16 55 C18.93510788 57.79927794 20.90633704 58.41226807 24.9375 58.375 C29.08636335 58.24077207 31.74890436 57.75850539 35 55 C38.25799566 51.27657638 39.11570968 48.13065894 39.20532227 43.25317383 C39.22526749 42.29240433 39.24521271 41.33163483 39.26576233 40.3417511 C39.28247482 39.30729355 39.29918732 38.272836 39.31640625 37.20703125 C39.33718735 36.14586594 39.35796844 35.08470062 39.37937927 33.99137878 C39.44481238 30.59848563 39.50373093 27.2055145 39.5625 23.8125 C39.60569114 21.51366378 39.64930562 19.21483547 39.69335938 16.91601562 C39.80048745 11.27742385 39.90177268 5.63875357 40 0 C43.63 0 47.26 0 51 0 C51.09942091 6.65278849 51.17172946 13.30513748 51.21972656 19.95849609 C51.23975089 22.21833843 51.26697862 24.47812955 51.30175781 26.73779297 C51.35068078 29.99980362 51.37306132 33.26112487 51.390625 36.5234375 C51.41127014 37.52176605 51.43191528 38.5200946 51.45318604 39.54867554 C51.45550708 46.92565662 50.34689598 54.18612499 45.32086182 59.91342163 C39.2686352 65.56071152 31.69021954 68.32564513 23.47265625 68.21875 C16.94917595 67.64163326 11.06721848 65.12448016 6 61 C-0.06045669 53.42442913 -0.2900055 46.1165062 -0.1953125 36.81640625 C-0.1924826 35.76090073 -0.18965271 34.7053952 -0.18673706 33.61790466 C-0.17559415 30.26598496 -0.15050024 26.91433816 -0.125 23.5625 C-0.1149626 21.28190492 -0.10583808 19.00130562 -0.09765625 16.72070312 C-0.07567407 11.14703119 -0.04118473 5.57356178 0 0 Z " fill="#365795" transform="translate(253,378)"/>
<path d="M0 0 C15.51 0 31.02 0 47 0 C47 2.64 47 5.28 47 8 C41.06 8 35.12 8 29 8 C29 27.14 29 46.28 29 66 C25.37 66 21.74 66 18 66 C18 46.86 18 27.72 18 8 C12.06 8 6.12 8 0 8 C0 5.36 0 2.72 0 0 Z " fill="#355594" transform="translate(174,378)"/>
<path d="M0 0 C4.22863847 -0.8245845 7.79504979 -1.04603341 12 0 C15.10539132 3.1560227 16.88038796 6.84007855 18.84423828 10.78125 C21.15980697 15.22651579 23.83752865 19.46724389 26.4375 23.75 C27.92974429 26.2518098 29.42138744 28.75397336 30.91186523 31.25683594 C31.88263762 32.95777075 31.88263762 32.95777075 33 34 C33.0883967 36.3756852 33.11530305 38.72208674 33.09765625 41.09765625 C33.0962413 41.80651474 33.09482635 42.51537323 33.09336853 43.24571228 C33.08775443 45.51801712 33.07519963 47.79022475 33.0625 50.0625 C33.05748681 51.59960796 33.05292359 53.13671745 33.04882812 54.67382812 C33.03778042 58.44925642 33.02050641 62.22461171 33 66 C29.37 66 25.74 66 22 66 C22.03778564 65.20118408 22.07557129 64.40236816 22.11450195 63.5793457 C22.78620998 45.10936217 21.22082265 32.33691583 9.63867188 17.18457031 C7.26734643 14.02327411 5.22519314 10.69429517 3.1875 7.3125 C2.24970703 5.82169922 2.24970703 5.82169922 1.29296875 4.30078125 C0 2 0 2 0 0 Z " fill="#365793" transform="translate(41,378)"/>
<path d="M0 0 C3.63 0 7.26 0 11 0 C11 21.78 11 43.56 11 66 C7.37 66 3.74 66 0 66 C0 44.22 0 22.44 0 0 Z " fill="#385793" transform="translate(131,378)"/>
<path d="M0 0 C3.96 0 7.92 0 12 0 C9.95336691 6.83308306 6.3239487 12.36658993 2.5625 18.375 C1.88123047 19.49261719 1.19996094 20.61023438 0.49804688 21.76171875 C-0.16001953 22.81746094 -0.81808594 23.87320312 -1.49609375 24.9609375 C-2.09607178 25.92821777 -2.6960498 26.89549805 -3.31420898 27.89208984 C-3.87052002 28.5877002 -4.42683105 29.28331055 -5 30 C-5.99 30 -6.98 30 -8 30 C-10.12484192 23.62547423 -9.95284357 18.66449733 -6.9921875 12.5625 C-4.78327225 8.30378252 -2.42124553 4.14109851 0 0 Z " fill="#365794" transform="translate(83,378)"/>
<path d="M0 0 C0 24.75 0 49.5 0 75 C-0.33 75 -0.66 75 -1 75 C-1.33 52.23 -1.66 29.46 -2 6 C-5.56311466 7.78155733 -7.35645475 9.16763009 -10 12 C-10 9 -10 9 -8.06640625 6.73828125 C-7.24011719 5.93777344 -6.41382813 5.13726562 -5.5625 4.3125 C-4.73878906 3.50425781 -3.91507812 2.69601563 -3.06640625 1.86328125 C-1 0 -1 0 0 0 Z " fill="#3A5D99" transform="translate(303,80)"/>
<path d="M0 0 C0.66 0.33 1.32 0.66 2 1 C0.92598892 3.91517292 0.22189824 5.77810176 -2 8 C-2.433125 8.928125 -2.433125 8.928125 -2.875 9.875 C-4.23950364 12.45239576 -5.78035552 14.11666529 -8 16 C-8.99 16 -9.98 16 -11 16 C-11 16.66 -11 17.32 -11 18 C-14 17 -14 17 -15.1875 14.9375 C-15.455625 14.298125 -15.72375 13.65875 -16 13 C-15.34 12.67 -14.68 12.34 -14 12 C-13.53248212 9.64400765 -13.53248212 9.64400765 -13.375 6.9375 C-13.30023438 6.01839844 -13.22546875 5.09929687 -13.1484375 4.15234375 C-13.09945312 3.44207031 -13.05046875 2.73179687 -13 2 C-12.67 2 -12.34 2 -12 2 C-11.34 5.96 -10.68 9.92 -10 14 C-7.20215289 11.20215289 -5.39288995 8.64897445 -3.3125 5.3125 C-2.68988281 4.31863281 -2.06726563 3.32476562 -1.42578125 2.30078125 C-0.95527344 1.54152344 -0.48476562 0.78226562 0 0 Z " fill="#E5F0F7" transform="translate(86,394)"/>
<path d="M0 0 C4.13621084 3.3810038 7.81316569 6.66590534 11 11 C8.36 11.33 5.72 11.66 3 12 C1.875 6.25 1.875 6.25 3 4 C2.01 3.67 1.02 3.34 0 3 C0 2.01 0 1.02 0 0 Z " fill="#E1EDF4" transform="translate(126,164)"/>
<path d="M0 0 C0.33 0 0.66 0 1 0 C1.6093181 6.82436271 0.32214601 10.67407691 -4 16 C-6.86170651 18.72211107 -9.05894832 20.41614049 -13 21 C-11.98502564 17.95507691 -11.4178943 16.9701361 -9 15 C-8.319375 14.87625 -7.63875 14.7525 -6.9375 14.625 C-6.298125 14.41875 -5.65875 14.2125 -5 14 C-3.70339566 11.50965614 -3.70339566 11.50965614 -3 9 C-2.34 9 -1.68 9 -1 9 C-0.67 6.03 -0.34 3.06 0 0 Z " fill="#335285" transform="translate(302,422)"/>
<path d="M0 0 C0.66 0 1.32 0 2 0 C1.48223379 4.10447392 -0.64627444 5.95699523 -3.5625 8.75 C-4.80193359 9.94882812 -4.80193359 9.94882812 -6.06640625 11.171875 C-6.70449219 11.77515625 -7.34257812 12.3784375 -8 13 C-8.33 12.34 -8.66 11.68 -9 11 C-9.66 10.67 -10.32 10.34 -11 10 C-9.68 10 -8.36 10 -7 10 C-7 8.68 -7 7.36 -7 6 C-5.68 6 -4.36 6 -3 6 C-2.67 4.68 -2.34 3.36 -2 2 C-1.34 2 -0.68 2 0 2 C0 1.34 0 0.68 0 0 Z " fill="#435F8F" transform="translate(255,249)"/>
<path d="M0 0 C0 2.64 0 5.28 0 8 C-0.66 7.34 -1.32 6.68 -2 6 C-5.36591866 7.44253657 -7.51047079 9.33264727 -10 12 C-10 9 -10 9 -8.06640625 6.73828125 C-7.24011719 5.93777344 -6.41382813 5.13726562 -5.5625 4.3125 C-4.73878906 3.50425781 -3.91507812 2.69601563 -3.06640625 1.86328125 C-1 0 -1 0 0 0 Z " fill="#445D8F" transform="translate(303,80)"/>
<path d="M0 0 C0.33 0 0.66 0 1 0 C1.13277344 0.84304688 1.26554687 1.68609375 1.40234375 2.5546875 C1.57894531 3.65039062 1.75554687 4.74609375 1.9375 5.875 C2.11152344 6.96554687 2.28554687 8.05609375 2.46484375 9.1796875 C2.85551159 11.93821546 2.85551159 11.93821546 4 14 C3.34 14 2.68 14 2 14 C2 14.66 2 15.32 2 16 C-1 15 -1 15 -2.1875 12.9375 C-2.455625 12.298125 -2.72375 11.65875 -3 11 C-2.34 10.67 -1.68 10.34 -1 10 C-0.53248212 7.64400765 -0.53248212 7.64400765 -0.375 4.9375 C-0.30023438 4.01839844 -0.22546875 3.09929687 -0.1484375 2.15234375 C-0.09945312 1.44207031 -0.05046875 0.73179687 0 0 Z " fill="#CBD7E8" transform="translate(73,396)"/>
<path d="M0 0 C0.33 0 0.66 0 1 0 C1.625 2.8125 1.625 2.8125 2 6 C-0.23795825 9.35693737 -1.2189697 9.91970563 -5 11 C-7.3125 10.625 -7.3125 10.625 -9 10 C-7.8553125 9.38125 -7.8553125 9.38125 -6.6875 8.75 C-2.96798454 6.32798993 -1.3960808 4.1882424 0 0 Z " fill="#456190" transform="translate(292,426)"/>
<path d="M0 0 C1.67542976 0.28604898 3.34385343 0.61781233 5 1 C3.38405168 3.04119788 1.7143618 5.04072937 0 7 C-0.66 7 -1.32 7 -2 7 C-1.125 1.125 -1.125 1.125 0 0 Z " fill="#375A8A" transform="translate(171,178)"/>
<path d="M0 0 C0.99 0.33 1.98 0.66 3 1 C1.02 3.31 -0.96 5.62 -3 8 C-3.66 7.67 -4.32 7.34 -5 7 C-5 6.01 -5 5.02 -5 4 C-3.35 3.34 -1.7 2.68 0 2 C0 1.34 0 0.68 0 0 Z " fill="#415A99" transform="translate(173,331)"/>
<path d="M0 0 C0.99 0.33 1.98 0.66 3 1 C2.04578192 2.14926266 1.08647955 3.29430541 0.125 4.4375 C-0.40867188 5.07558594 -0.94234375 5.71367187 -1.4921875 6.37109375 C-3 8 -3 8 -5 9 C-4.67 7.35 -4.34 5.7 -4 4 C-3.34 4 -2.68 4 -2 4 C-2 3.34 -2 2.68 -2 2 C-1.34 2 -0.68 2 0 2 C0 1.34 0 0.68 0 0 Z " fill="#435E92" transform="translate(221,283)"/>
<path d="M0 0 C0 3 0 3 -1.53125 4.82421875 C-2.1809375 5.43910156 -2.830625 6.05398437 -3.5 6.6875 C-4.1496875 7.31011719 -4.799375 7.93273437 -5.46875 8.57421875 C-5.9740625 9.04472656 -6.479375 9.51523438 -7 10 C-7.66 8.68 -8.32 7.36 -9 6 C-7.68 5.67 -6.36 5.34 -5 5 C-5 4.01 -5 3.02 -5 2 C-4.360625 1.855625 -3.72125 1.71125 -3.0625 1.5625 C-1.02454854 1.18992819 -1.02454854 1.18992819 0 0 Z " fill="#375384" transform="translate(194,159)"/>
<path d="M0 0 C0.66 0.99 1.32 1.98 2 3 C-0.31 4.98 -2.62 6.96 -5 9 C-5.33 8.01 -5.66 7.02 -6 6 C-4.68 5.34 -3.36 4.68 -2 4 C-2 3.34 -2 2.68 -2 2 C-1.34 2 -0.68 2 0 2 C0 1.34 0 0.68 0 0 Z " fill="#455D98" transform="translate(191,313)"/>
<path d="M0 0 C0.33 0.66 0.66 1.32 1 2 C-0.125 4.5625 -0.125 4.5625 -2 7 C-4.6875 7.8125 -4.6875 7.8125 -7 8 C-6.02133662 6.85373678 -5.04205413 5.70800212 -4.0625 4.5625 C-3.51722656 3.92441406 -2.97195312 3.28632813 -2.41015625 2.62890625 C-1.63204305 1.73008851 -0.84063472 0.84063472 0 0 Z " fill="#436291" transform="translate(250,132)"/>
<path d="M0 0 C-0.34879632 3.25543229 -1.02133261 4.01873107 -3.5625 6.25 C-4.366875 6.8275 -5.17125 7.405 -6 8 C-5.62403791 5.21788056 -5.32681541 3.4120716 -3.5625 1.1875 C-2 0 -2 0 0 0 Z " fill="#425C8F" transform="translate(182,324)"/>
<path d="M0 0 C0.99 0.33 1.98 0.66 3 1 C1.02 3.31 -0.96 5.62 -3 8 C-3.33 6.68 -3.66 5.36 -4 4 C-3.34 4 -2.68 4 -2 4 C-1.34 2.68 -0.68 1.36 0 0 Z " fill="#455C94" transform="translate(231,273)"/>
<path d="M0 0 C0.66 0.99 1.32 1.98 2 3 C-0.97 5.475 -0.97 5.475 -4 8 C-4.66 7.34 -5.32 6.68 -6 6 C-5.34 6 -4.68 6 -4 6 C-3.67 4.68 -3.34 3.36 -3 2 C-2.01 2 -1.02 2 0 2 C0 1.34 0 0.68 0 0 Z " fill="#445F9A" transform="translate(239,265)"/>
<path d="M0 0 C3.63 0 7.26 0 11 0 C10.34 1.65 9.68 3.3 9 5 C8.67 4.34 8.34 3.68 8 3 C6.11235097 2.31527335 6.11235097 2.31527335 3.9375 1.875 C3.20402344 1.70742188 2.47054687 1.53984375 1.71484375 1.3671875 C1.14894531 1.24601562 0.58304687 1.12484375 0 1 C0 0.67 0 0.34 0 0 Z " fill="#2C487B" transform="translate(84,378)"/>
<path d="M0 0 C-0.57344937 2.86724686 -0.8614515 3.8614515 -3 6 C-3.99 6 -4.98 6 -6 6 C-5.6875 4.125 -5.6875 4.125 -5 2 C-2 0 -2 0 0 0 Z " fill="#3F608B" transform="translate(293,213)"/>
<path d="M0 0 C1.67542976 0.28604898 3.34385343 0.61781233 5 1 C3.35 2.65 1.7 4.3 0 6 C-0.38218767 4.34385343 -0.71395102 2.67542976 -1 1 C-0.67 0.67 -0.34 0.34 0 0 Z " fill="#3D598B" transform="translate(179,170)"/>
<path d="M0 0 C2.3125 0.125 2.3125 0.125 5 1 C6.8125 4.0625 6.8125 4.0625 8 7 C5 7 5 7 2.3125 4.625 C0 2 0 2 0 0 Z " fill="#455D8C" transform="translate(106,143)"/>
<path d="M0 0 C1.32 0.33 2.64 0.66 4 1 C4 2.32 4 3.64 4 5 C2.02 5.99 2.02 5.99 0 7 C0 4.69 0 2.38 0 0 Z " fill="#2F55A4" transform="translate(169,328)"/>
<path d="M0 0 C0.99 0.33 1.98 0.66 3 1 C-0.465 3.97 -0.465 3.97 -4 7 C-4.33 6.34 -4.66 5.68 -5 5 C-3.35 3.35 -1.7 1.7 0 0 Z " fill="#EBF9FE" transform="translate(292,87)"/>
<path d="M0 0 C0.99 0.33 1.98 0.66 3 1 C2.34 2.32 1.68 3.64 1 5 C-0.32 4.67 -1.64 4.34 -3 4 C-2.01 2.68 -1.02 1.36 0 0 Z " fill="#3F608E" transform="translate(203,179)"/>
<path d="M0 0 C0.99 0.99 1.98 1.98 3 3 C1.68 4.32 0.36 5.64 -1 7 C-1.66 6.34 -2.32 5.68 -3 5 C-2.67 4.34 -2.34 3.68 -2 3 C-1.34 3 -0.68 3 0 3 C0 2.01 0 1.02 0 0 Z " fill="#446199" transform="translate(270,232)"/>
<path d="M0 0 C0.66 0.66 1.32 1.32 2 2 C-1.465 4.97 -1.465 4.97 -5 8 C-5.66 7.67 -6.32 7.34 -7 7 C-4.69 4.69 -2.38 2.38 0 0 Z " fill="#466092" transform="translate(266,116)"/>
<path d="M0 0 C0.66 0.33 1.32 0.66 2 1 C-1.465 3.97 -1.465 3.97 -5 7 C-4 3 -4 3 -3 1 C-2.01 0.67 -1.02 0.34 0 0 Z " fill="#ECFBFE" transform="translate(261,119)"/>
<path d="M0 0 C0.66 0.66 1.32 1.32 2 2 C-1.465 4.97 -1.465 4.97 -5 8 C-4.67 6.35 -4.34 4.7 -4 3 C-2.68 2.67 -1.36 2.34 0 2 C0 1.34 0 0.68 0 0 Z " fill="#EBF9FD" transform="translate(268,111)"/>
<path d="M0 0 C2.97 0.495 2.97 0.495 6 1 C6.33 2.98 6.66 4.96 7 7 C5.83040013 6.02433888 4.66438823 5.044375 3.5 4.0625 C2.8503125 3.51722656 2.200625 2.97195312 1.53125 2.41015625 C1.0259375 1.94480469 0.520625 1.47945312 0 1 C0 0.67 0 0.34 0 0 Z " fill="#2E4D82" transform="translate(146,183)"/>
<path d="M0 0 C0.99 0.33 1.98 0.66 3 1 C-0.465 3.97 -0.465 3.97 -4 7 C-2.92598892 4.08482708 -2.22189824 2.22189824 0 0 Z " fill="#E8F8FE" transform="translate(251,128)"/>
<path d="M0 0 C2.475 0.99 2.475 0.99 5 2 C5 3.65 5 5.3 5 7 C1.18461538 4.53846154 1.18461538 4.53846154 0.25 1.8125 C0.1675 1.214375 0.085 0.61625 0 0 Z " fill="#416197" transform="translate(71,107)"/>
</svg>
