<?xml version="1.0" standalone="no"?>
<!DOCTYPE svg PUBLIC "-//W3C//DTD SVG 20010904//EN"
 "http://www.w3.org/TR/2001/REC-SVG-20010904/DTD/svg10.dtd">
<svg version="1.0" xmlns="http://www.w3.org/2000/svg"
 width="800.000000pt" height="800.000000pt" viewBox="0 0 800.000000 800.000000"
 preserveAspectRatio="xMidYMid meet">
<metadata>
Created by potrace 1.16, written by Peter Selinger 2001-2019
</metadata>
<g transform="translate(0.000000,800.000000) scale(0.100000,-0.100000)"
fill="#000000" stroke="none">
<path d="M2203 6725 c1 -5 361 -367 799 -804 640 -638 799 -792 812 -784 27
15 826 816 826 828 0 20 -755 765 -776 765 -743 6 -1664 3 -1661 -5z"/>
<path d="M5434 6367 c-1173 -1179 -1509 -1519 -1516 -1532 -5 -7 -7 -395 -6
-860 l3 -847 925 926 c509 510 931 940 937 956 10 22 13 228 13 866 1 460 -1
838 -3 840 -2 2 -161 -155 -353 -349z"/>
<path d="M3700 1886 l0 -616 24 0 24 0 -1 613 -2 612 -22 3 -23 3 0 -615z"/>
<path d="M1210 2353 c0 -48 -30 -173 -55 -233 -22 -53 -41 -82 -112 -182 -16
-21 -23 -45 -23 -74 0 -50 12 -56 37 -18 21 33 94 87 103 77 4 -5 3 -122 -2
-262 -5 -140 -7 -259 -5 -265 3 -7 26 -12 51 -11 l47 0 3 355 3 355 42 127
c22 70 41 134 41 143 0 12 -13 15 -65 15 -64 0 -65 0 -65 -27z"/>
<path d="M1584 2356 c-7 -28 3 -67 20 -78 20 -13 126 -9 128 5 1 6 2 31 3 55
l2 42 -73 0 c-70 0 -74 -1 -80 -24z"/>
<path d="M2279 2355 c0 0 -1 -217 -2 -483 l-2 -482 422 0 423 0 40 36 c21 19
42 45 46 57 4 12 8 214 8 449 l1 427 -467 -2 c-258 -1 -468 -2 -469 -2z m839
-443 c2 -396 -1 -422 -53 -442 -16 -6 -162 -10 -356 -10 l-329 0 -1 138 c0 75
-1 171 -2 212 -1 41 0 164 1 273 l2 197 368 -2 367 -3 3 -363z"/>
<path d="M2613 2228 c-20 -5 -38 -20 -51 -42 -11 -18 -32 -42 -46 -52 -52 -37
-64 -49 -71 -73 -7 -23 -6 -23 40 -17 44 7 48 5 89 -31 23 -21 52 -46 64 -55
39 -32 27 -44 -85 -81 -100 -33 -108 -38 -111 -63 -4 -27 -3 -27 41 -21 25 4
95 22 155 42 60 19 118 35 130 35 11 0 69 -18 129 -40 107 -40 147 -48 157
-32 13 22 -28 51 -107 76 -102 31 -119 47 -82 73 94 65 155 144 155 201 l0 34
-167 -3 -167 -3 -8 26 c-11 32 -24 37 -65 26z m277 -120 c0 -15 -127 -138
-142 -138 -6 0 -29 20 -52 45 -26 28 -54 47 -74 51 -39 8 -48 20 -32 39 17 20
300 22 300 3z"/>
<path d="M2634 1771 c-2 -2 -4 -15 -4 -27 0 -26 10 -30 155 -63 l80 -18 3 45
c2 24 2 46 0 48 -6 5 -229 20 -234 15z"/>
<path d="M2566 1631 c-10 -15 11 -59 31 -65 10 -3 45 -10 78 -15 117 -20 170
-29 198 -36 27 -7 27 -6 27 39 0 30 -4 46 -12 47 -61 3 -282 29 -300 35 -9 3
-19 1 -22 -5z"/>
<path d="M1665 2210 l-320 -5 -3 -37 -3 -38 81 0 c62 0 82 -3 86 -15 13 -34
-68 -229 -127 -307 -16 -21 -42 -56 -59 -77 -20 -27 -30 -51 -30 -75 0 -48 18
-46 66 7 37 41 92 87 104 87 4 0 5 -81 2 -180 -4 -168 -3 -180 13 -180 21 0
192 84 218 107 22 20 24 93 3 93 -8 0 -36 -11 -62 -25 -86 -46 -83 -51 -77
163 5 199 6 207 50 322 l29 75 194 5 195 5 3 34 c3 33 -11 53 -33 49 -5 -2
-154 -5 -330 -8z"/>
<path d="M4130 2196 c0 -7 41 -81 91 -162 51 -82 101 -165 113 -184 17 -29 22
-58 28 -193 4 -88 9 -161 12 -164 3 -3 27 -6 53 -7 l48 0 3 166 2 166 -53 89
c-29 48 -82 136 -117 196 l-63 107 -59 0 c-43 0 -58 -4 -58 -14z"/>
<path d="M4564 2153 c-54 -84 -74 -126 -81 -166 -7 -48 4 -107 22 -107 16 0
205 298 205 325 0 3 -25 5 -55 5 l-54 0 -37 -57z"/>
<path d="M5117 2203 c-4 -3 -7 -165 -7 -360 l0 -353 55 0 c30 0 55 3 55 8 1
36 2 458 1 570 l-1 142 -48 0 c-27 0 -52 -3 -55 -7z"/>
<path d="M5580 2166 l0 -46 95 0 95 0 0 -315 0 -315 45 -1 c25 -1 51 -2 58 -3
9 -1 13 72 17 319 l5 320 80 1 c120 1 115 -1 115 39 0 19 -3 35 -7 35 -5 0
-119 3 -255 6 l-248 6 0 -46z"/>
<path d="M6442 2198 c-18 -18 -16 -456 2 -523 26 -99 67 -149 156 -187 36 -16
61 -19 125 -16 131 7 212 61 250 167 12 35 15 97 15 307 l0 264 -54 0 -54 0
-4 -272 c-4 -315 -5 -321 -88 -363 -78 -40 -134 -31 -191 32 -40 43 -49 108
-49 368 l0 235 -48 0 c-26 0 -53 -5 -60 -12z"/>
<path d="M1646 1993 c-28 -5 -28 -5 -22 -61 15 -123 76 -254 159 -341 45 -47
210 -161 233 -161 10 0 14 13 14 41 0 34 -6 46 -31 68 -87 73 -159 146 -159
160 0 9 19 39 41 66 46 55 109 177 109 211 0 19 -5 21 -51 20 -59 -1 -61 -4
-80 -88 -15 -72 -43 -121 -67 -116 -13 2 -22 26 -36 98 -10 52 -24 98 -30 102
-11 8 -31 8 -80 1z"/>
</g>
</svg>
